<?xml version="1.0" encoding="utf-8"?>
<!-- Generator: Adobe Illustrator 17.0.0, SVG Export Plug-In . SVG Version: 6.00 Build 0)  -->
<!DOCTYPE svg PUBLIC "-//W3C//DTD SVG 1.1//EN" "http://www.w3.org/Graphics/SVG/1.1/DTD/svg11.dtd">
<svg version="1.1" id="Capa_1" xmlns="http://www.w3.org/2000/svg" xmlns:xlink="http://www.w3.org/1999/xlink" x="0px" y="0px"
	 width="1280px" height="850px" viewBox="0 0 1280 850" enable-background="new 0 0 1280 850" xml:space="preserve">
<g id="Capa_2">
	<path fill="#34D9C3" d="M0,0h924.024c0,0-21.111,58.058-49.262,123.74c-28.149,65.681-103.214,70.374-248.652,107.905
		S459.561,337.206,429.065,412.27c-30.495,75.064-65.548,105.608-65.548,105.608S175.221,705.414,0,501.409V0z"/>
	<path fill="#289E8A" d="M1280,850H782.364c0,0,11.37-31.268,26.53-66.641s55.586-37.899,133.912-58.113
		c78.326-20.212,89.696-56.85,106.119-97.275c16.424-40.427,35.301-56.876,35.301-56.876s101.407-100.998,195.773,8.87L1280,850
		L1280,850z"/>
</g>
</svg>
