<?xml version="1.0" encoding="utf-8"?>
<!-- Generator: Adobe Illustrator 15.0.0, SVG Export Plug-In . SVG Version: 6.00 Build 0)  -->
<!DOCTYPE svg PUBLIC "-//W3C//DTD SVG 1.1//EN" "http://www.w3.org/Graphics/SVG/1.1/DTD/svg11.dtd">
<svg version="1.1" id="Capa_1" xmlns="http://www.w3.org/2000/svg" xmlns:xlink="http://www.w3.org/1999/xlink" x="0px" y="0px"
	 width="300px" height="300px" viewBox="0 0 300 300" enable-background="new 0 0 300 300" xml:space="preserve">
<path fill="#A3BD31" d="M282.398,190.47c0,6.627-5.373,12-12,12H29.602c-6.627,0-12-5.373-12-12V109.53c0-6.627,5.373-12,12-12
	h240.796c6.627,0,12,5.373,12,12V190.47z"/>
<g>
	<path fill="#FFFFFF" d="M26.475,147.698v-0.052c0-5.435,4.29-9.491,10.037-9.491c3.12,0,5.642,1.04,7.618,2.756l-3.406,4.108
		c-1.196-1.014-2.522-1.586-4.03-1.586c-2.366,0-4.082,1.82-4.082,4.29v0.052c0,2.574,1.794,4.342,4.342,4.342
		c1.04,0,1.612-0.155,2.08-0.416v-1.82h-3.12v-3.9h8.814v8.424c-1.976,1.612-4.732,2.73-8.034,2.73
		C31.025,157.137,26.475,153.341,26.475,147.698z"/>
	<path fill="#FFFFFF" d="M46.235,151.91v-9.36h5.902v7.462c0,1.222,0.728,1.924,1.612,1.924c0.884,0,1.69-0.702,1.69-1.924v-7.462
		h5.902v14.197h-5.902v-1.898c-0.91,1.17-2.34,2.236-4.342,2.236C48.107,157.085,46.235,155.108,46.235,151.91z"/>
	<path fill="#FFFFFF" d="M63.161,142.55h5.902v14.197h-5.902V142.55z M66.385,136.674l5.746,1.482l-4.29,3.51h-3.952L66.385,136.674
		z"/>
	<path fill="#FFFFFF" d="M70.336,152.717v-0.052c0-2.835,2.106-4.421,5.408-4.421c1.196,0,2.73,0.26,3.354,0.52v-0.234
		c0-1.3-0.806-2.054-2.626-2.054c-1.456,0-2.678,0.312-3.926,0.806l-1.04-3.926c1.638-0.624,3.51-1.04,5.98-1.04
		c2.886,0,4.758,0.598,6.006,1.846c1.066,1.066,1.482,2.444,1.482,4.498v8.087h-5.902v-1.431c-0.988,1.066-2.314,1.769-4.082,1.769
		C72.261,157.085,70.336,155.524,70.336,152.717z M79.151,151.494v-0.598c-0.338-0.13-0.858-0.234-1.352-0.234
		c-1.17,0-1.82,0.702-1.82,1.587v0.052c0,0.832,0.598,1.378,1.353,1.378C78.371,153.679,79.151,152.847,79.151,151.494z"/>
	<path fill="#FFFFFF" d="M92.826,149.752V149.7c0-4.498,2.704-7.488,6.059-7.488c2.158,0,3.354,0.936,4.264,1.95v-6.396h5.902
		v18.981h-5.902v-1.742c-0.962,1.04-2.054,2.08-4.212,2.08C95.504,157.085,92.826,154.095,92.826,149.752z M103.279,149.674v-0.052
		c0-1.404-1.014-2.548-2.366-2.548s-2.366,1.118-2.366,2.548v0.052c0,1.43,1.014,2.548,2.366,2.548S103.279,151.104,103.279,149.674
		z"/>
	<path fill="#FFFFFF" d="M110.376,149.727v-0.052c0-4.238,3.042-7.462,7.307-7.462c5.044,0,7.384,3.51,7.384,7.826
		c0,0.313,0,0.676-0.026,0.988h-9.126c0.416,1.248,1.404,1.898,2.678,1.898c1.066,0,1.95-0.494,2.886-1.456l3.172,2.521
		c-1.404,1.82-3.406,3.095-6.474,3.095C113.522,157.085,110.376,154.146,110.376,149.727z M119.685,148.426
		c-0.13-1.352-0.936-2.132-1.976-2.132c-0.988,0-1.69,0.832-1.872,2.132H119.685z"/>
	<path fill="#FFFFFF" d="M133.126,138.546h8.893c3.224,0,5.278,0.806,6.552,2.08c1.092,1.092,1.664,2.444,1.664,4.316v0.052
		c0,2.652-1.378,4.498-3.588,5.564l4.238,6.188h-6.942l-3.432-5.2h-1.3v5.2h-6.084V138.546z M141.836,147.204
		c1.456,0,2.34-0.65,2.34-1.768v-0.052c0-1.17-0.91-1.742-2.314-1.742h-2.652v3.562H141.836z"/>
	<path fill="#FFFFFF" d="M150.858,149.727v-0.052c0-4.238,3.042-7.462,7.306-7.462c5.045,0,7.385,3.51,7.385,7.826
		c0,0.313,0,0.676-0.026,0.988h-9.126c0.416,1.248,1.404,1.898,2.678,1.898c1.066,0,1.95-0.494,2.887-1.456l3.172,2.521
		c-1.404,1.82-3.406,3.095-6.475,3.095C154.004,157.085,150.858,154.146,150.858,149.727z M160.167,148.426
		c-0.131-1.352-0.937-2.132-1.977-2.132c-0.988,0-1.69,0.832-1.872,2.132H160.167z"/>
	<path fill="#FFFFFF" d="M167.94,147.1h-1.664v-4.55h1.664c0.025-1.508,0.39-2.73,1.273-3.614c0.962-0.962,2.21-1.352,4.16-1.352
		c1.742,0,2.809,0.156,3.614,0.39v3.692c-0.572-0.13-1.144-0.208-1.897-0.208c-0.91,0-1.379,0.364-1.379,1.144v0.104h3.276v4.394
		h-3.146v9.647h-5.902V147.1z"/>
	<path fill="#FFFFFF" d="M177.222,149.727v-0.052c0-4.238,3.042-7.462,7.307-7.462c5.044,0,7.384,3.51,7.384,7.826
		c0,0.313,0,0.676-0.025,0.988h-9.127c0.416,1.248,1.404,1.898,2.679,1.898c1.065,0,1.95-0.494,2.886-1.456l3.172,2.521
		c-1.403,1.82-3.405,3.095-6.474,3.095C180.368,157.085,177.222,154.146,177.222,149.727z M186.53,148.426
		c-0.13-1.352-0.936-2.132-1.976-2.132c-0.988,0-1.69,0.832-1.872,2.132H186.53z"/>
	<path fill="#FFFFFF" d="M193.212,142.55h5.902v2.86c0.806-1.924,2.105-3.172,4.446-3.068v6.267h-0.624
		c-2.496,0-3.822,1.378-3.822,4.524v3.614h-5.902V142.55z"/>
	<path fill="#FFFFFF" d="M204.002,149.727v-0.052c0-4.238,3.042-7.462,7.306-7.462c5.045,0,7.385,3.51,7.385,7.826
		c0,0.313,0,0.676-0.026,0.988h-9.126c0.416,1.248,1.404,1.898,2.678,1.898c1.066,0,1.95-0.494,2.887-1.456l3.172,2.521
		c-1.404,1.82-3.406,3.095-6.475,3.095C207.147,157.085,204.002,154.146,204.002,149.727z M213.311,148.426
		c-0.131-1.352-0.937-2.132-1.977-2.132c-0.988,0-1.69,0.832-1.872,2.132H213.311z"/>
	<path fill="#FFFFFF" d="M219.991,142.55h5.902v1.977c0.91-1.17,2.341-2.314,4.343-2.314c2.99,0,4.862,1.976,4.862,5.174v9.361
		h-5.902v-7.463c0-1.222-0.729-1.924-1.612-1.924s-1.69,0.702-1.69,1.924v7.463h-5.902V142.55z"/>
	<path fill="#FFFFFF" d="M236.319,149.727v-0.052c0-3.978,3.12-7.436,7.748-7.436c3.12,0,5.33,1.612,6.422,3.926l-4.237,2.392
		c-0.494-0.91-1.118-1.43-2.08-1.43c-1.248,0-2.185,1.092-2.185,2.496v0.052c0,1.482,0.937,2.548,2.106,2.548
		c1.04,0,1.638-0.521,2.21-1.43l4.29,2.444c-1.274,2.366-3.433,3.874-6.813,3.874C239.465,157.11,236.319,153.705,236.319,149.727z"
		/>
	<path fill="#FFFFFF" d="M251.451,137.766h6.11v3.771h-6.11V137.766z M251.555,142.55h5.902v14.197h-5.902V142.55z"/>
	<path fill="#FFFFFF" d="M258.73,152.717v-0.052c0-2.835,2.106-4.421,5.408-4.421c1.196,0,2.73,0.26,3.354,0.52v-0.234
		c0-1.3-0.806-2.054-2.626-2.054c-1.456,0-2.679,0.312-3.927,0.806l-1.04-3.926c1.639-0.624,3.511-1.04,5.98-1.04
		c2.887,0,4.759,0.598,6.007,1.846c1.065,1.066,1.481,2.444,1.481,4.498v8.087h-5.902v-1.431c-0.987,1.066-2.313,1.769-4.082,1.769
		C260.655,157.085,258.73,155.524,258.73,152.717z M267.545,151.494v-0.598c-0.338-0.13-0.857-0.234-1.352-0.234
		c-1.17,0-1.82,0.702-1.82,1.587v0.052c0,0.832,0.598,1.378,1.352,1.378C266.765,153.679,267.545,152.847,267.545,151.494z"/>
</g>
<circle fill="#FFFFFF" stroke="#A3BD31" stroke-width="3" stroke-miterlimit="10" cx="150" cy="91.53" r="25.255"/>
<g>
	<path fill="#A3BD31" d="M146.958,82.43h6.084v18.201h-6.084V82.43z"/>
</g>
</svg>
