<?xml version="1.0" encoding="utf-8"?>
<!-- Generator: Adobe Illustrator 15.0.0, SVG Export Plug-In . SVG Version: 6.00 Build 0)  -->
<!DOCTYPE svg PUBLIC "-//W3C//DTD SVG 1.1//EN" "http://www.w3.org/Graphics/SVG/1.1/DTD/svg11.dtd">
<svg version="1.1" xmlns="http://www.w3.org/2000/svg" xmlns:xlink="http://www.w3.org/1999/xlink" x="0px" y="0px" width="1360px"
	 height="768px" viewBox="0 0 1360 768" enable-background="new 0 0 1360 768" xml:space="preserve">
<g id="Capa_2">
	<rect fill="#3BD4B7" width="1360" height="768"/>
</g>
<g id="Capa_1">
	<g>
		<defs>
			<path id="SVGID_1_" d="M818.089,134L682.966,308.538c-0.083-0.061-0.162-0.118-0.246-0.186c-0.087-0.057-0.177-0.113-0.261-0.169
				L789.154,134h-32.429l-74.98,173.816c-0.102-0.043-0.196-0.079-0.291-0.113c-0.098-0.038-0.192-0.076-0.295-0.102L734.369,134
				h-26.873l-27.123,173.422c-0.098-0.014-0.196-0.034-0.31-0.045c-0.095-0.007-0.205-0.011-0.303-0.023L687.765,134h-25.393
				l16.572,173.377c-0.102,0.011-0.203,0.019-0.313,0.035c-0.103,0.019-0.192,0.033-0.299,0.055L642.251,134h-27.618l62.921,173.687
				c-0.094,0.034-0.195,0.072-0.287,0.118c-0.098,0.033-0.195,0.083-0.287,0.125L591.431,134h-34.139L676.28,308.334
				c-0.082,0.068-0.166,0.124-0.249,0.182c-0.08,0.064-0.163,0.131-0.243,0.195L527.265,135.159
				c-16.257,14.924-8.399,7.185-23.559,23.221l171.513,150.906c-0.065,0.075-0.133,0.152-0.206,0.238
				c-0.056,0.076-0.123,0.163-0.188,0.249L487.89,178.429c-12.094,18.557-6.38,9.067-17.152,28.485l203.68,103.55
				c-0.046,0.084-0.096,0.187-0.136,0.276c-0.044,0.096-0.083,0.194-0.121,0.291l-213.777-80.666
				c-7.098,21.058-3.93,10.424-9.508,31.94l223.054,49.499c-0.018,0.105-0.037,0.207-0.056,0.306
				c-0.015,0.1-0.031,0.199-0.042,0.306l-227.104-24.945c-1.629,22.075-1.205,11.017-1.277,33.161l228.351-7.405
				c0.005,0.103,0.013,0.208,0.019,0.307c0.012,0.107,0.022,0.211,0.033,0.314l-226.207,32.184c3.91,21.887,1.57,11.04,7.027,32.575
				l219.352-63.969c0.029,0.094,0.063,0.196,0.098,0.298c0.034,0.091,0.076,0.186,0.113,0.284L463.19,402.799
				c9.26,20.193,4.283,10.276,14.914,29.71l196.483-116.568c0.06,0.088,0.12,0.182,0.169,0.265c0.064,0.083,0.124,0.17,0.186,0.253
				L492.33,453.718c13.882,17.147,6.644,8.833,21.702,24.964l161.435-161.611c0.072,0.069,0.152,0.141,0.228,0.208
				c0.076,0.069,0.154,0.137,0.234,0.205l-142.902,178.2c17.732,13.218,8.656,6.94,27.279,18.872l116.288-196.62
				c0.087,0.054,0.181,0.099,0.276,0.157c0.09,0.045,0.186,0.085,0.279,0.13l-94.094,208.146
				c20.601,8.428,10.166,4.584,31.273,11.513l63.576-219.378c0.104,0.034,0.193,0.057,0.295,0.079
				c0.109,0.024,0.212,0.042,0.313,0.061l-39.158,224.998c21.826,2.989,10.854,1.874,32.922,3.324l7.045-228.24
				c0.1,0.004,0.209,0,0.304,0.004c0.112-0.004,0.211-0.012,0.313-0.014l17.823,227.647c22.042-2.515,11.074-0.867,32.899-4.952
				l-49.925-222.816c0.105-0.027,0.199-0.05,0.303-0.08c0.097-0.031,0.192-0.06,0.294-0.09l74.049,215.987
				c20.707-7.938,10.496-3.598,30.621-13.013L682.077,318.104c0.088-0.045,0.183-0.095,0.271-0.148
				c0.087-0.054,0.176-0.106,0.262-0.155l125.454,190.727c18.001-12.789,9.243-6.085,26.288-20.106l-151.1-171.123
				c0.079-0.06,0.155-0.136,0.223-0.204c0.078-0.083,0.151-0.15,0.231-0.226l168.79,153.665c14.29-16.86,7.449-8.187,20.519-26.028
				L684.194,316.233c0.061-0.088,0.116-0.179,0.174-0.258c0.045-0.09,0.098-0.185,0.15-0.271l201.705,106.865
				c9.694-19.981,5.205-9.819,13.464-30.496l-214.843-77.11c0.033-0.098,0.064-0.197,0.102-0.299
				c0.019-0.095,0.053-0.196,0.075-0.295l221.978,53.154c4.384-21.728,2.59-10.825,5.401-32.712l-227.246-21.235
				c0.004-0.106,0.015-0.208,0.019-0.322c0.004-0.102,0-0.207,0.004-0.306l228.206-3.696c-1.115-22.045-0.168-11.032-2.869-33.027
				l-225.404,35.914c-0.017-0.094-0.042-0.2-0.058-0.305c-0.025-0.102-0.049-0.201-0.077-0.299l220.141-60.362
				c-6.646-21.25-2.949-10.774-11.079-31.436l-209.328,91.037c-0.046-0.102-0.09-0.192-0.128-0.283
				c-0.05-0.09-0.099-0.184-0.153-0.271l198.128-113.366c-11.658-18.796-5.503-9.623-18.455-27.526L683.986,309.546
				c-0.072-0.074-0.137-0.162-0.208-0.242c-0.064-0.074-0.136-0.154-0.208-0.226l163.813-158.976
				c-12.931-12.426-9.932-9.899-17.453-16.102H818.089z"/>
		</defs>
		<clipPath id="SVGID_2_">
			<use xlink:href="#SVGID_1_"  overflow="visible"/>
		</clipPath>
		<defs>
			<filter id="Adobe_OpacityMaskFilter" filterUnits="userSpaceOnUse" x="445.099" y="134" width="468.284" height="412.966">
				<feColorMatrix  type="matrix" values="1 0 0 0 0  0 1 0 0 0  0 0 1 0 0  0 0 0 1 0"/>
			</filter>
		</defs>
		<mask maskUnits="userSpaceOnUse" x="445.099" y="134" width="468.284" height="412.966" id="SVGID_3_">
			<g filter="url(#Adobe_OpacityMaskFilter)">
				
					<radialGradient id="SVGID_4_" cx="429.999" cy="634" r="1.0006" gradientTransform="matrix(221.5419 0 0 -221.5419 -94583.5938 140770.5781)" gradientUnits="userSpaceOnUse">
					<stop  offset="0" style="stop-color:#FFFFFF"/>
					<stop  offset="0.0352" style="stop-color:#E1E1E1"/>
					<stop  offset="0.0985" style="stop-color:#B3B3B3"/>
					<stop  offset="0.1675" style="stop-color:#888888"/>
					<stop  offset="0.2405" style="stop-color:#636363"/>
					<stop  offset="0.3188" style="stop-color:#444444"/>
					<stop  offset="0.4039" style="stop-color:#2B2B2B"/>
					<stop  offset="0.4985" style="stop-color:#181818"/>
					<stop  offset="0.6078" style="stop-color:#0A0A0A"/>
					<stop  offset="0.7451" style="stop-color:#020202"/>
					<stop  offset="1" style="stop-color:#000000"/>
				</radialGradient>
				<rect x="445.099" y="133.999" clip-path="url(#SVGID_2_)" fill="url(#SVGID_4_)" width="468.284" height="412.966"/>
			</g>
		</mask>
		<rect x="445.099" y="134" clip-path="url(#SVGID_2_)" mask="url(#SVGID_3_)" fill="#55F700" width="468.284" height="412.966"/>
	</g>
	<g>
		<defs>
			<rect id="SVGID_5_" x="296" width="768" height="768"/>
		</defs>
		<clipPath id="SVGID_6_">
			<use xlink:href="#SVGID_5_"  overflow="visible"/>
		</clipPath>
		<path clip-path="url(#SVGID_6_)" fill="#92D6E4" d="M912.754,397.914v-15.342H901.84c-0.884-3.913-2.425-7.571-4.501-10.858
			l7.72-7.722l-10.849-10.847l-7.722,7.72c-3.286-2.078-6.945-3.618-10.858-4.5V345.45h-15.341v10.915
			c-3.911,0.882-7.57,2.422-10.858,4.5l-7.72-7.72l-10.848,10.847l7.719,7.722c-2.077,3.287-3.617,6.946-4.499,10.858h-10.916
			v15.342h10.916c0.882,3.91,2.422,7.57,4.499,10.859l-7.719,7.718l10.848,10.848l7.72-7.718c3.288,2.078,6.947,3.617,10.858,4.5
			v10.914h15.341v-10.914c3.913-0.883,7.572-2.422,10.858-4.5l7.722,7.718l10.849-10.848l-7.72-7.718
			c2.076-3.289,3.617-6.949,4.501-10.859H912.754z M867.959,410.093c-10.962,0-19.849-8.887-19.849-19.85
			c0-10.964,8.887-19.852,19.849-19.852c10.966,0,19.852,8.887,19.852,19.852C887.811,401.206,878.925,410.093,867.959,410.093"/>
		<path clip-path="url(#SVGID_6_)" fill="#92D6E4" d="M858.276,390.243c0,5.346,4.336,9.682,9.683,9.682
			c5.35,0,9.686-4.336,9.686-9.682c0-5.35-4.336-9.685-9.686-9.685C862.612,380.559,858.276,384.894,858.276,390.243"/>
		<path clip-path="url(#SVGID_6_)" fill="#92D6E4" d="M403.007,105.879v-9.332h-6.638c-0.535-2.378-1.474-4.603-2.736-6.602
			l4.695-4.694l-6.597-6.597l-4.695,4.693c-1.997-1.263-4.224-2.2-6.603-2.736v-6.638h-9.33v6.638
			c-2.376,0.536-4.603,1.473-6.603,2.736l-4.694-4.693l-6.597,6.597l4.696,4.694c-1.266,1.999-2.202,4.224-2.739,6.602h-6.636v9.332
			h6.636c0.537,2.378,1.474,4.604,2.739,6.604l-4.696,4.692l6.597,6.598l4.694-4.696c2,1.265,4.227,2.202,6.603,2.739v6.636h9.33
			v-6.636c2.379-0.537,4.605-1.474,6.603-2.739l4.695,4.696l6.597-6.598l-4.695-4.692c1.263-2,2.201-4.225,2.736-6.604H403.007z
			 M375.769,113.284c-6.666,0-12.07-5.405-12.07-12.07c0-6.668,5.404-12.073,12.07-12.073c6.665,0,12.071,5.405,12.071,12.073
			C387.84,107.879,382.434,113.284,375.769,113.284"/>
		<path clip-path="url(#SVGID_6_)" fill="#92D6E4" d="M369.881,101.214c0,3.251,2.636,5.888,5.888,5.888
			c3.253,0,5.889-2.637,5.889-5.888c0-3.252-2.636-5.889-5.889-5.889C372.517,95.325,369.881,97.962,369.881,101.214"/>
		<path clip-path="url(#SVGID_6_)" fill="#92D6E4" d="M638.855,108.885V93.543h-10.914c-0.881-3.912-2.423-7.571-4.501-10.858
			l7.721-7.722l-10.85-10.847l-7.72,7.721c-3.287-2.079-6.945-3.619-10.858-4.501V56.421h-15.341v10.915
			c-3.91,0.882-7.571,2.422-10.857,4.501l-7.721-7.721l-10.849,10.847l7.72,7.722c-2.077,3.287-3.616,6.947-4.501,10.858h-10.914
			v15.342h10.914c0.885,3.91,2.424,7.571,4.501,10.859l-7.72,7.719l10.849,10.848l7.721-7.719c3.286,2.079,6.947,3.618,10.857,4.5
			v10.913h15.341v-10.913c3.913-0.881,7.571-2.42,10.858-4.5l7.72,7.719l10.85-10.848l-7.721-7.719
			c2.078-3.289,3.62-6.95,4.501-10.859H638.855z M594.063,121.063c-10.962,0-19.85-8.886-19.85-19.85s8.888-19.852,19.85-19.852
			c10.964,0,19.851,8.888,19.851,19.852S605.027,121.063,594.063,121.063"/>
		<path clip-path="url(#SVGID_6_)" fill="#92D6E4" d="M584.38,101.214c0,5.347,4.338,9.683,9.684,9.683
			c5.349,0,9.682-4.336,9.682-9.683c0-5.348-4.333-9.685-9.682-9.685C588.718,91.529,584.38,95.866,584.38,101.214"/>
		<path clip-path="url(#SVGID_6_)" fill="#92D6E4" d="M914.79,166.714v-37.719h-26.836c-2.166-9.615-5.952-18.612-11.062-26.693
			l18.979-18.98l-26.67-26.67l-18.98,18.977c-8.083-5.108-17.078-8.895-26.694-11.062V37.732h-37.718v26.835
			c-9.616,2.167-18.613,5.954-26.696,11.062l-18.979-18.977l-26.67,26.67l18.979,18.98c-5.111,8.081-8.895,17.078-11.063,26.693
			h-26.834v37.719h26.834c2.169,9.616,5.952,18.612,11.063,26.696l-18.979,18.977l26.67,26.67l18.979-18.979
			c8.083,5.11,17.08,8.895,26.696,11.064v26.834h37.718v-26.834c9.616-2.169,18.611-5.954,26.694-11.064l18.98,18.979l26.67-26.67
			l-18.979-18.977c5.109-8.084,8.896-17.081,11.062-26.696H914.79z M804.667,190.334c-23.461,0-42.479-19.018-42.479-42.479
			s19.019-42.479,42.479-42.479c23.46,0,42.479,19.018,42.479,42.479S828.127,190.334,804.667,190.334"/>
		<path clip-path="url(#SVGID_6_)" fill="#92D6E4" d="M960.323,569.14v-30.19h-21.481c-1.735-7.697-4.765-14.898-8.854-21.37
			l15.191-15.193l-21.35-21.347l-15.189,15.192c-6.471-4.09-13.674-7.12-21.369-8.856v-21.479h-30.194v21.479
			c-7.695,1.736-14.896,4.767-21.367,8.856l-15.191-15.192l-21.348,21.347l15.191,15.193c-4.093,6.472-7.119,13.673-8.854,21.37
			h-21.481v30.19h21.481c1.735,7.696,4.767,14.898,8.854,21.369L799.17,605.7l21.348,21.348l15.191-15.191
			c6.471,4.09,13.672,7.12,21.367,8.855v21.479h30.194v-21.479c7.695-1.735,14.898-4.766,21.369-8.855l15.189,15.191l21.35-21.348
			l-15.191-15.191c4.09-6.471,7.119-13.673,8.854-21.369H960.323z M872.174,588.047c-18.778,0-34.002-15.224-34.002-34.004
			c0-18.779,15.224-34.002,34.002-34.002c18.779,0,34.003,15.223,34.003,34.002C906.177,572.823,890.953,588.047,872.174,588.047"/>
		<path clip-path="url(#SVGID_6_)" fill="#92D6E4" d="M546.563,671.159v-24.057h-17.115c-1.382-6.135-3.797-11.872-7.057-17.027
			l12.105-12.107l-17.012-17.007l-12.104,12.104c-5.155-3.26-10.895-5.673-17.026-7.056v-17.116h-24.058v17.116
			c-6.133,1.383-11.87,3.796-17.026,7.056l-12.104-12.104l-17.012,17.007l12.104,12.107c-3.258,5.155-5.672,10.893-7.054,17.027
			h-17.117v24.057h17.117c1.382,6.132,3.796,11.869,7.054,17.025l-12.104,12.104l17.012,17.008l12.104-12.102
			c5.156,3.258,10.894,5.674,17.026,7.056v17.113h24.058v-17.113c6.132-1.382,11.871-3.798,17.026-7.056l12.104,12.102
			l17.012-17.008l-12.105-12.104c3.26-5.156,5.675-10.894,7.057-17.025H546.563z M476.326,686.223
			c-14.964,0-27.094-12.129-27.094-27.094c0-14.962,12.13-27.094,27.094-27.094s27.096,12.132,27.096,27.094
			C503.422,674.094,491.29,686.223,476.326,686.223"/>
		<path clip-path="url(#SVGID_6_)" fill="#92D6E4" d="M632.477,623.018v-8.89h-6.324c-0.511-2.266-1.402-4.388-2.605-6.291
			l4.474-4.474l-6.289-6.286l-4.473,4.473c-1.904-1.203-4.022-2.097-6.289-2.606v-6.324h-8.89v6.324
			c-2.267,0.51-4.387,1.403-6.292,2.606l-4.473-4.473l-6.285,6.286l4.474,4.474c-1.205,1.903-2.098,4.025-2.607,6.291h-6.324v8.89
			h6.324c0.51,2.266,1.402,4.384,2.607,6.291l-4.474,4.474l6.285,6.284l4.473-4.474c1.905,1.204,4.025,2.098,6.292,2.609v6.322h8.89
			v-6.322c2.267-0.512,4.385-1.405,6.289-2.609l4.473,4.474l6.289-6.284l-4.474-4.474c1.203-1.907,2.095-4.025,2.605-6.291H632.477z
			 M606.525,628.583c-5.531,0-10.013-4.48-10.013-10.012c0-5.526,4.481-10.011,10.013-10.011c5.529,0,10.01,4.484,10.01,10.011
			C616.535,624.103,612.055,628.583,606.525,628.583"/>
		<path clip-path="url(#SVGID_6_)" fill="#92D6E4" d="M664.824,446.99v-16.654h-11.85c-0.958-4.246-2.628-8.218-4.884-11.785
			l8.38-8.381l-11.776-11.776l-8.379,8.381c-3.569-2.257-7.543-3.928-11.787-4.885v-11.849h-16.653v11.849
			c-4.245,0.957-8.217,2.628-11.787,4.885l-8.382-8.381l-11.774,11.776l8.379,8.381c-2.253,3.567-3.925,7.539-4.884,11.785h-11.848
			v16.654h11.848c0.959,4.246,2.631,8.218,4.884,11.786l-8.379,8.38l11.774,11.775l8.382-8.378c3.57,2.256,7.542,3.926,11.787,4.883
			v11.85h16.653v-11.85c4.244-0.957,8.218-2.627,11.787-4.883l8.379,8.378l11.776-11.775l-8.38-8.38
			c2.256-3.568,3.926-7.54,4.884-11.786H664.824z M616.202,457.419c-10.359,0-18.756-8.397-18.756-18.756
			c0-10.36,8.396-18.757,18.756-18.757c10.358,0,18.756,8.396,18.756,18.757C634.958,449.021,626.561,457.419,616.202,457.419"/>
		<path clip-path="url(#SVGID_6_)" fill="#4F4F52" d="M644.503,465.896c0,18.971,15.379,34.349,34.35,34.349
			c18.969,0,34.348-15.378,34.348-34.349s-15.379-34.351-34.348-34.351C659.882,431.545,644.503,446.925,644.503,465.896"/>
		<path clip-path="url(#SVGID_6_)" fill="#B2D8FF" d="M706.833,482.832h-55.962c-14.247,0-25.797-11.552-25.797-25.797v-57.758
			c0-0.481,0.39-0.87,0.87-0.87H731.76c0.481,0,0.87,0.389,0.87,0.87v57.758C732.63,471.28,721.079,482.832,706.833,482.832"/>
		<path clip-path="url(#SVGID_6_)" fill="#8FC4FF" d="M625.074,437.584c11.028-3.683,54.312-15.747,107.556,0.143v-31.869
			c-11.827-1.567-58.062-7.147-78.854-1.636l-23.954,6.348l-4.747,1.146V437.584z"/>
		<path clip-path="url(#SVGID_6_)" fill="#D8F4C9" d="M811.141,263.723c0-70.228-54.717-127.673-123.845-132.027
			c-81.4-5.127-148.703,65.261-139.968,146.355c4.814,44.712,31.915,82.747,69.968,102.789c0.061,0.032,0.099,0.097,0.099,0.165
			v33.891c0,8.213,6.659,14.87,14.872,14.87h93.168c8.214,0,14.873-6.657,14.873-14.87v-33.891c0-0.068,0.037-0.132,0.1-0.165
			C782.462,358.689,811.141,314.558,811.141,263.723"/>
		<path clip-path="url(#SVGID_6_)" fill="#92D6E4" d="M670.297,429.765c-0.78-16.228-5.276-65.992-31.136-115.699
			c-1.669-3.21-5.097-4.114-7.648-2.016c-2.557,2.098-3.272,6.4-1.603,9.61c23.776,45.704,28.391,92.492,29.283,108.104H670.297z"/>
		<path clip-path="url(#SVGID_6_)" fill="#92D6E4" d="M718.544,314.066c-25.861,49.706-30.356,99.471-31.138,115.699h11.104
			c0.893-15.612,5.509-62.402,29.283-108.105c1.671-3.209,0.954-7.511-1.602-9.609C723.639,309.952,720.214,310.855,718.544,314.066
			"/>
		<path clip-path="url(#SVGID_6_)" fill="#004D40" d="M773.488,267.837c0-13.753-9.191-25.355-21.763-29.016
			c1.23-2.796,1.925-5.883,1.925-9.134c0-12.557-10.179-22.735-22.735-22.735c-0.948,0-1.881,0.076-2.798,0.188
			c-0.748-11.881-10.594-21.295-22.664-21.295c-12.557,0-22.735,10.179-22.735,22.736v112.743h0.325
			c-0.193,1.264-0.325,2.546-0.325,3.865c0,13.959,11.314,25.278,25.278,25.278c11.258,0,20.788-7.366,24.06-17.538
			c16.162-0.603,29.081-13.886,29.081-30.194c0-3.314-0.539-6.5-1.525-9.483C767.959,287.873,773.488,278.502,773.488,267.837"/>
		<path clip-path="url(#SVGID_6_)" fill="#004D40" d="M752.314,274.948c-6.091,0-11.454,3.16-14.548,7.92
			c-3.095-4.761-8.457-7.92-14.549-7.92c-1.542,0-2.792,1.249-2.792,2.791c0,1.542,1.25,2.793,2.792,2.793
			c6.482,0,11.757,5.273,11.757,11.757c0,1.541,1.249,2.791,2.792,2.791c1.542,0,2.792-1.25,2.792-2.791
			c0-6.484,5.272-11.757,11.756-11.757c1.541,0,2.792-1.25,2.792-2.793C755.106,276.197,753.855,274.948,752.314,274.948"/>
		<path clip-path="url(#SVGID_6_)" fill="#004D40" d="M709.522,218.099c-2.613-2.612-6.267-3.558-9.638-2.842
			c0.716-3.37-0.229-7.023-2.841-9.636c-0.661-0.661-1.735-0.661-2.394,0c-0.662,0.662-0.662,1.734,0,2.396
			c2.778,2.778,2.778,7.301,0,10.082c-0.662,0.662-0.662,1.732,0,2.395c0.658,0.66,1.732,0.66,2.394,0
			c2.779-2.78,7.305-2.78,10.083,0c0.661,0.66,1.734,0.66,2.396,0C710.183,219.831,710.183,218.76,709.522,218.099"/>
		<path clip-path="url(#SVGID_6_)" fill="#004D40" d="M746.514,297.378c-2.612,2.611-3.56,6.267-2.842,9.637
			c-3.37-0.716-7.025,0.229-9.637,2.841c-0.661,0.662-0.661,1.733,0,2.395c0.66,0.661,1.733,0.661,2.394,0
			c2.78-2.779,7.303-2.781,10.085,0c0.659,0.661,1.73,0.661,2.393,0s0.662-1.732,0-2.395c-2.78-2.781-2.78-7.304,0-10.084
			c0.662-0.66,0.662-1.732,0-2.394C748.246,296.715,747.173,296.715,746.514,297.378"/>
		<path clip-path="url(#SVGID_6_)" fill="#004D40" d="M713.241,307.429c0-0.024,0.001-0.048,0.001-0.072
			c0-9.573-7.787-17.363-17.361-17.363c-1.543,0-2.796,1.253-2.796,2.796c0,1.544,1.253,2.794,2.796,2.794
			c6.491,0,11.771,5.282,11.771,11.772c0,6.491-5.28,11.77-11.771,11.77c-1.543,0-2.796,1.251-2.796,2.795
			c0,1.542,1.253,2.796,2.796,2.796c7.613,0,14.095-4.93,16.431-11.761c6.002,0.528,10.726,5.577,10.726,11.718
			c0,1.542,1.253,2.793,2.797,2.793c1.543,0,2.795-1.251,2.795-2.793C728.629,315.77,721.887,308.412,713.241,307.429"/>
		<path clip-path="url(#SVGID_6_)" fill="#004D40" d="M712.477,240.875c0-0.025-0.002-0.048-0.002-0.072
			c0-9.573,7.787-17.362,17.361-17.362c1.544,0,2.794,1.252,2.794,2.796c0,1.544-1.25,2.794-2.794,2.794
			c-6.491,0-11.772,5.282-11.772,11.771c0,6.491,5.281,11.77,11.772,11.77c1.544,0,2.794,1.253,2.794,2.798
			c0,1.542-1.25,2.794-2.794,2.794c-7.614,0-14.095-4.929-16.43-11.761c-6.003,0.529-10.728,5.577-10.728,11.718
			c0,1.542-1.252,2.794-2.795,2.794c-1.544,0-2.794-1.252-2.794-2.794C697.09,249.214,703.83,241.857,712.477,240.875"/>
		<path clip-path="url(#SVGID_6_)" fill="#004D40" d="M585.372,267.837c0-13.753,9.189-25.355,21.762-29.016
			c-1.229-2.796-1.923-5.883-1.923-9.134c0-12.557,10.177-22.735,22.734-22.735c0.951,0,1.88,0.076,2.799,0.188
			c0.745-11.881,10.594-21.295,22.662-21.295c12.558,0,22.736,10.179,22.736,22.736v112.743h-0.326
			c0.194,1.264,0.326,2.546,0.326,3.865c0,13.959-11.316,25.278-25.277,25.278c-11.259,0-20.79-7.366-24.06-17.538
			c-16.161-0.603-29.083-13.886-29.083-30.194c0-3.314,0.542-6.5,1.527-9.483C590.904,287.873,585.372,278.502,585.372,267.837"/>
		<path clip-path="url(#SVGID_6_)" fill="#004D40" d="M603.692,274.948c6.091,0,11.455,3.16,14.547,7.92
			c3.094-4.761,8.458-7.92,14.551-7.92c1.54,0,2.79,1.249,2.79,2.791c0,1.542-1.25,2.793-2.79,2.793
			c-6.483,0-11.757,5.273-11.757,11.757c0,1.541-1.251,2.791-2.794,2.791c-1.541,0-2.788-1.25-2.788-2.791
			c0-6.484-5.275-11.757-11.759-11.757c-1.542,0-2.792-1.25-2.792-2.793C600.9,276.197,602.15,274.948,603.692,274.948"/>
		<path clip-path="url(#SVGID_6_)" fill="#004D40" d="M646.485,218.099c2.613-2.612,6.267-3.558,9.636-2.842
			c-0.716-3.37,0.229-7.023,2.841-9.636c0.661-0.661,1.734-0.661,2.396,0c0.66,0.662,0.66,1.734,0,2.396
			c-2.78,2.778-2.78,7.301,0,10.082c0.66,0.662,0.66,1.732,0,2.395c-0.662,0.66-1.735,0.66-2.396,0c-2.779-2.78-7.302-2.78-10.083,0
			c-0.663,0.66-1.732,0.66-2.394,0C645.823,219.831,645.823,218.76,646.485,218.099"/>
		<path clip-path="url(#SVGID_6_)" fill="#004D40" d="M609.494,297.378c2.613,2.611,3.556,6.267,2.842,9.637
			c3.368-0.716,7.023,0.229,9.637,2.841c0.659,0.662,0.659,1.733,0,2.395c-0.663,0.661-1.733,0.661-2.395,0
			c-2.781-2.779-7.302-2.781-10.084,0c-0.662,0.661-1.733,0.661-2.396,0c-0.66-0.661-0.66-1.732,0-2.395
			c2.781-2.781,2.781-7.304,0-10.084c-0.66-0.66-0.66-1.732,0-2.394C607.761,296.715,608.832,296.715,609.494,297.378"/>
		<path clip-path="url(#SVGID_6_)" fill="#004D40" d="M642.765,307.429c0-0.024,0-0.048,0-0.072c0-9.573,7.788-17.363,17.362-17.363
			c1.543,0,2.795,1.253,2.795,2.796c0,1.544-1.252,2.794-2.795,2.794c-6.489,0-11.773,5.282-11.773,11.772
			c0,6.491,5.284,11.77,11.773,11.77c1.543,0,2.795,1.251,2.795,2.795c0,1.542-1.252,2.796-2.795,2.796
			c-7.615,0-14.095-4.93-16.432-11.761c-6.001,0.528-10.726,5.577-10.726,11.718c0,1.542-1.252,2.793-2.796,2.793
			c-1.545,0-2.796-1.251-2.796-2.793C627.378,315.77,634.12,308.412,642.765,307.429"/>
		<path clip-path="url(#SVGID_6_)" fill="#004D40" d="M643.53,240.875c0-0.025,0.003-0.048,0.003-0.072
			c0-9.573-7.788-17.362-17.363-17.362c-1.542,0-2.794,1.252-2.794,2.796c0,1.544,1.252,2.794,2.794,2.794
			c6.491,0,11.773,5.282,11.773,11.771c0,6.491-5.282,11.77-11.773,11.77c-1.542,0-2.794,1.253-2.794,2.798
			c0,1.542,1.252,2.794,2.794,2.794c7.615,0,14.097-4.929,16.433-11.761c6.001,0.529,10.726,5.577,10.726,11.718
			c0,1.542,1.251,2.794,2.795,2.794c1.543,0,2.796-1.252,2.796-2.794C658.919,249.214,652.176,241.857,643.53,240.875"/>
		<path clip-path="url(#SVGID_6_)" fill="#D8F4C9" d="M678.853,117.523L678.853,117.523c-3.937,0-7.153-3.22-7.153-7.154V63.574
			c0-3.935,3.217-7.153,7.153-7.153c3.934,0,7.153,3.218,7.153,7.153v46.795C686.006,114.304,682.786,117.523,678.853,117.523"/>
		<path clip-path="url(#SVGID_6_)" fill="#D8F4C9" d="M826.139,273.445L826.139,273.445c0-3.936,3.219-7.153,7.153-7.153h46.795
			c3.935,0,7.153,3.217,7.153,7.153s-3.219,7.153-7.153,7.153h-46.795C829.357,280.598,826.139,277.381,826.139,273.445"/>
		<path clip-path="url(#SVGID_6_)" fill="#D8F4C9" d="M470.913,273.445L470.913,273.445c0-3.936,3.22-7.153,7.152-7.153h46.797
			c3.935,0,7.152,3.217,7.152,7.153s-3.218,7.153-7.152,7.153h-46.797C474.133,280.598,470.913,277.381,470.913,273.445"/>
		<path clip-path="url(#SVGID_6_)" fill="#D8F4C9" d="M783.064,169.457L783.064,169.457c-2.784-2.782-2.784-7.335,0-10.116
			l33.09-33.09c2.781-2.782,7.336-2.782,10.116,0c2.781,2.783,2.781,7.334,0,10.118l-33.088,33.088
			C790.399,172.24,785.847,172.24,783.064,169.457"/>
		<path clip-path="url(#SVGID_6_)" fill="#D8F4C9" d="M547.986,404.534L547.986,404.534c-2.784-2.781-2.784-7.333,0-10.115
			l16.986-16.987c2.782-2.781,7.333-2.781,10.115,0c2.783,2.783,2.783,7.336,0,10.117l-16.985,16.985
			C555.321,407.317,550.771,407.317,547.986,404.534"/>
		<path clip-path="url(#SVGID_6_)" fill="#D8F4C9" d="M783.064,377.433L783.064,377.433c2.782-2.784,7.335-2.784,10.118,0
			l15.501,15.503c2.782,2.78,2.782,7.332,0,10.115c-2.784,2.782-7.337,2.782-10.118,0l-15.501-15.502
			C780.28,384.769,780.28,380.217,783.064,377.433"/>
		<path clip-path="url(#SVGID_6_)" fill="#D8F4C9" d="M531.883,126.25L531.883,126.25c2.781-2.783,7.334-2.783,10.115,0l33.09,33.09
			c2.781,2.781,2.781,7.334,0,10.116c-2.78,2.781-7.335,2.781-10.117,0l-33.088-33.088
			C529.099,133.585,529.099,129.034,531.883,126.25"/>
		<path clip-path="url(#SVGID_6_)" fill="#FFFFFF" d="M731.826,452.52H626.383c-2.894,0-5.261-2.365-5.261-5.256
			c0-2.893,2.367-5.259,5.261-5.259h105.443c2.892,0,5.258,2.366,5.258,5.259C737.084,450.154,734.718,452.52,731.826,452.52"/>
		<path clip-path="url(#SVGID_6_)" fill="#FFFFFF" d="M727.372,471.153h-98.023c-2.891,0-5.256-2.367-5.256-5.258
			c0-2.893,2.365-5.259,5.256-5.259h98.023c2.893,0,5.258,2.366,5.258,5.259C732.63,468.786,730.265,471.153,727.372,471.153"/>
		<g opacity="0.27" clip-path="url(#SVGID_6_)">
			<g>
				<defs>
					<rect id="SVGID_7_" x="567.847" y="158.208" width="114.456" height="122.468"/>
				</defs>
				<clipPath id="SVGID_8_">
					<use xlink:href="#SVGID_7_"  overflow="visible"/>
				</clipPath>
				<path clip-path="url(#SVGID_8_)" fill="#93D277" d="M670.324,249.015c-19.352,29.604-55.294,40.366-80.284,24.034
					c-24.991-16.332-29.564-53.571-10.215-83.179c19.351-29.605,55.293-40.366,80.282-24.034
					C685.099,182.167,689.671,219.408,670.324,249.015"/>
			</g>
		</g>
		<g opacity="0.15" clip-path="url(#SVGID_6_)">
			<g>
				<defs>
					<rect id="SVGID_9_" x="552.108" y="136.516" width="230.43" height="211.322"/>
				</defs>
				<clipPath id="SVGID_10_">
					<use xlink:href="#SVGID_9_"  overflow="visible"/>
				</clipPath>
				<path clip-path="url(#SVGID_10_)" fill="#93D277" d="M754.512,252.588c12.769-19.538,22.071-40.179,28.028-61.021
					c-21.313-31.151-56.202-52.282-96.162-54.798c-77.661-4.892-141.874,62.265-133.54,139.635
					c2.943,27.329,14.625,52.032,32.174,71.292C646.922,350.356,713.254,315.718,754.512,252.588"/>
			</g>
		</g>
		<g opacity="0.27" clip-path="url(#SVGID_6_)">
			<g>
				<defs>
					<rect id="SVGID_11_" x="585.979" y="183.158" width="51.551" height="55.16"/>
				</defs>
				<clipPath id="SVGID_12_">
					<use xlink:href="#SVGID_11_"  overflow="visible"/>
				</clipPath>
				<path clip-path="url(#SVGID_12_)" fill="#93D277" d="M632.135,224.057c-8.714,13.335-24.903,18.181-36.16,10.825
					c-11.256-7.356-13.314-24.129-4.601-37.464c8.717-13.333,24.904-18.182,36.159-10.826
					C638.791,193.948,640.85,210.721,632.135,224.057"/>
			</g>
		</g>
		<g opacity="0.27" clip-path="url(#SVGID_6_)">
			<g>
				<defs>
					<rect id="SVGID_13_" x="739.607" y="320.411" width="34.15" height="36.54"/>
				</defs>
				<clipPath id="SVGID_14_">
					<use xlink:href="#SVGID_13_"  overflow="visible"/>
				</clipPath>
				<path clip-path="url(#SVGID_14_)" fill="#93D277" d="M770.185,347.505c-5.773,8.833-16.498,12.043-23.954,7.172
					c-7.457-4.874-8.821-15.986-3.048-24.818c5.771-8.833,16.496-12.044,23.954-7.171
					C774.593,327.56,775.955,338.671,770.185,347.505"/>
			</g>
		</g>
		<g opacity="0.33" clip-path="url(#SVGID_6_)">
			<g>
				<defs>
					<rect id="SVGID_15_" x="625.074" y="381.92" width="15.479" height="38.699"/>
				</defs>
				<clipPath id="SVGID_16_">
					<use xlink:href="#SVGID_15_"  overflow="visible"/>
				</clipPath>
				<path clip-path="url(#SVGID_16_)" fill="#93D277" d="M632.814,420.619L632.814,420.619c-4.258,0-7.74-3.484-7.74-7.74v-23.218
					c0-4.258,3.482-7.74,7.74-7.74c4.257,0,7.739,3.482,7.739,7.74v23.218C640.554,417.135,637.071,420.619,632.814,420.619"/>
			</g>
		</g>
		<path clip-path="url(#SVGID_6_)" fill="#D8F4C9" d="M807.196,431.545c0,13.619-11.04,24.66-24.656,24.66
			c-13.62,0-24.66-11.041-24.66-24.66c0-13.618,11.04-24.657,24.66-24.657C796.156,406.888,807.196,417.927,807.196,431.545"/>
		<path clip-path="url(#SVGID_6_)" fill="#4F4F52" d="M795.018,427.057h-8.156v-8.157c0-2.443-2.002-4.446-4.447-4.446
			c-2.446,0-4.444,2.003-4.444,4.446v8.157h-8.156c-2.445,0-4.447,2-4.447,4.445s2.002,4.446,4.447,4.446h8.156v8.156
			c0,2.444,1.998,4.445,4.444,4.445c2.445,0,4.447-2.001,4.447-4.445v-8.156h8.156c2.445,0,4.445-2.001,4.445-4.446
			S797.463,427.057,795.018,427.057"/>
		<path clip-path="url(#SVGID_6_)" fill="#D8F4C9" d="M517.351,377.502c0,13.619-11.041,24.657-24.66,24.657
			c-13.615,0-24.657-11.038-24.657-24.657c0-13.618,11.042-24.657,24.657-24.657C506.31,352.845,517.351,363.884,517.351,377.502"/>
		<path clip-path="url(#SVGID_6_)" fill="#4F4F52" d="M505.17,373.013h-8.157v-8.157c0-2.443-1.999-4.445-4.445-4.445
			c-2.445,0-4.445,2.002-4.445,4.445v8.157h-8.158c-2.444,0-4.446,2-4.446,4.447c0,2.443,2.002,4.445,4.446,4.445h8.158v8.157
			c0,2.444,2,4.446,4.445,4.446c2.446,0,4.445-2.002,4.445-4.446v-8.157h8.157c2.445,0,4.446-2.001,4.446-4.445
			C509.616,375.013,507.615,373.013,505.17,373.013"/>
		<path clip-path="url(#SVGID_6_)" fill="#92D6E4" d="M823.084,352.545c0,8.002-6.487,14.491-14.49,14.491
			c-8.005,0-14.491-6.489-14.491-14.491c0-8.003,6.486-14.491,14.491-14.491C816.597,338.054,823.084,344.542,823.084,352.545"/>
		<path clip-path="url(#SVGID_6_)" fill="#D8F4C9" d="M815.925,349.907h-4.792v-4.792c0-1.438-1.177-2.614-2.612-2.614
			c-1.438,0-2.614,1.176-2.614,2.614v4.792h-4.792c-1.437,0-2.613,1.176-2.613,2.612c0,1.438,1.177,2.612,2.613,2.612h4.792v4.794
			c0,1.438,1.176,2.612,2.614,2.612c1.436,0,2.612-1.174,2.612-2.612v-4.794h4.792c1.438,0,2.614-1.174,2.614-2.612
			C818.539,351.083,817.362,349.907,815.925,349.907"/>
		<path clip-path="url(#SVGID_6_)" fill="#D8F4C9" d="M896.755,242.178c0,8.003-6.487,14.49-14.49,14.49
			c-8.001,0-14.489-6.487-14.489-14.49c0-8.002,6.488-14.491,14.489-14.491C890.268,227.687,896.755,234.176,896.755,242.178"/>
		<path clip-path="url(#SVGID_6_)" fill="#4F4F52" d="M889.598,239.54h-4.792v-4.792c0-1.438-1.177-2.614-2.612-2.614
			c-1.438,0-2.614,1.175-2.614,2.614v4.792h-4.793c-1.436,0-2.612,1.176-2.612,2.613c0,1.438,1.177,2.612,2.612,2.612h4.793v4.792
			c0,1.438,1.176,2.615,2.614,2.615c1.436,0,2.612-1.176,2.612-2.615v-4.792h4.792c1.438,0,2.612-1.175,2.612-2.612
			C892.21,240.716,891.035,239.54,889.598,239.54"/>
		<path clip-path="url(#SVGID_6_)" fill="#D8F4C9" d="M783.485,95.325c0,8.003-6.489,14.491-14.492,14.491
			c-8.002,0-14.489-6.488-14.489-14.491c0-8.002,6.487-14.491,14.489-14.491C776.996,80.834,783.485,87.322,783.485,95.325"/>
		<path clip-path="url(#SVGID_6_)" fill="#4F4F52" d="M776.328,92.687h-4.794v-4.792c0-1.438-1.175-2.611-2.61-2.611
			c-1.438,0-2.614,1.173-2.614,2.611v4.792h-4.792c-1.438,0-2.614,1.176-2.614,2.613c0,1.437,1.177,2.612,2.614,2.612h4.792v4.792
			c0,1.438,1.177,2.615,2.614,2.615c1.436,0,2.61-1.177,2.61-2.615v-4.792h4.794c1.436,0,2.612-1.176,2.612-2.612
			C778.94,93.863,777.764,92.687,776.328,92.687"/>
		<path clip-path="url(#SVGID_6_)" fill="#D8F4C9" d="M531.227,308.733c0,8.002-6.487,14.491-14.491,14.491
			c-8.001,0-14.488-6.488-14.488-14.491s6.487-14.491,14.488-14.491C524.739,294.242,531.227,300.73,531.227,308.733"/>
		<path clip-path="url(#SVGID_6_)" fill="#4F4F52" d="M524.07,306.095h-4.794v-4.792c0-1.438-1.177-2.613-2.611-2.613
			c-1.439,0-2.613,1.175-2.613,2.613v4.792h-4.794c-1.436,0-2.613,1.177-2.613,2.613c0,1.437,1.178,2.611,2.613,2.611h4.794v4.793
			c0,1.438,1.174,2.613,2.613,2.613c1.435,0,2.611-1.175,2.611-2.613v-4.793h4.794c1.436,0,2.612-1.175,2.612-2.611
			C526.683,307.271,525.506,306.095,524.07,306.095"/>
		<path clip-path="url(#SVGID_6_)" fill="#92D6E4" d="M533.624,205.125c0,18.329-14.859,33.186-33.188,33.186
			c-18.33,0-33.188-14.857-33.188-33.186c0-18.332,14.858-33.187,33.188-33.187C518.765,171.938,533.624,186.794,533.624,205.125"/>
		<path clip-path="url(#SVGID_6_)" fill="#D8F4C9" d="M517.23,199.082h-10.979v-10.976c0-3.292-2.693-5.984-5.983-5.984
			c-3.293,0-5.984,2.692-5.984,5.984v10.976h-10.978c-3.291,0-5.984,2.694-5.984,5.984c0,3.292,2.693,5.984,5.984,5.984h10.978
			v10.976c0,3.293,2.691,5.986,5.984,5.986c3.29,0,5.983-2.693,5.983-5.986V211.05h10.979c3.291,0,5.983-2.693,5.983-5.984
			C523.214,201.776,520.521,199.082,517.23,199.082"/>
		<path clip-path="url(#SVGID_6_)" fill="#92D6E4" d="M567.579,520.349v-18.452h-13.128c-1.061-4.701-2.912-9.104-5.412-13.059
			l9.285-9.282l-13.047-13.049l-9.285,9.285c-3.954-2.5-8.354-4.352-13.059-5.413v-13.126h-18.45v13.126
			c-4.704,1.062-9.105,2.913-13.06,5.413l-9.283-9.285l-13.047,13.049l9.283,9.282c-2.499,3.955-4.352,8.357-5.411,13.059h-13.129
			v18.452h13.129c1.06,4.704,2.912,9.105,5.411,13.059l-9.283,9.285l13.047,13.047l9.283-9.286c3.954,2.502,8.355,4.352,13.06,5.413
			v13.127h18.45v-13.127c4.704-1.062,9.104-2.911,13.059-5.413l9.285,9.286l13.047-13.047l-9.285-9.285
			c2.5-3.953,4.352-8.354,5.412-13.059H567.579z M513.708,539.51c-15.678,0-28.386-12.71-28.386-28.387s12.708-28.387,28.386-28.387
			s28.386,12.71,28.386,28.387S529.386,539.51,513.708,539.51"/>
		<path clip-path="url(#SVGID_6_)" fill="#92D6E4" d="M470.913,298.493v-8.5h-6.048c-0.488-2.165-1.341-4.194-2.49-6.015
			l4.273-4.275l-6.009-6.009l-4.276,4.276c-1.819-1.15-3.846-2.005-6.013-2.493v-6.045h-8.498v6.045
			c-2.167,0.488-4.195,1.343-6.016,2.493l-4.276-4.276l-6.009,6.009l4.276,4.275c-1.152,1.82-2.004,3.85-2.493,6.015h-6.045v8.5
			h6.045c0.489,2.166,1.341,4.191,2.493,6.015l-4.276,4.274l6.009,6.009l4.276-4.274c1.82,1.151,3.849,2.004,6.016,2.492v6.046
			h8.498v-6.046c2.167-0.488,4.193-1.341,6.013-2.492l4.276,4.274l6.009-6.009l-4.273-4.274c1.149-1.824,2.002-3.85,2.49-6.015
			H470.913z M446.101,307.317c-7.221,0-13.074-5.854-13.074-13.075c0-7.221,5.854-13.072,13.074-13.072s13.074,5.852,13.074,13.072
			C459.175,301.463,453.321,307.317,446.101,307.317"/>
		<path clip-path="url(#SVGID_6_)" fill="#FFC559" d="M665.009,586.014v28.656c0-10.921-8.854-19.774-19.776-19.774
			c-2.738,0-4.958,2.221-4.958,4.96v54.308c0,0-2.542,47.876,70.111,47.747c1.13-0.002,10.98-0.529,10.98-0.529
			c27.307,0,49.444-22.136,49.444-49.441v-43.651L665.009,586.014z"/>
		<path clip-path="url(#SVGID_6_)" fill="#FFAC40" d="M665.009,612.641v22.844c0,0,32.24-1.853,47.634,36.211
			c0,0-2.257-34.06-43.696-44.395L665.009,612.641z"/>
		<path clip-path="url(#SVGID_6_)" fill="#FFC559" d="M678.33,511.123L678.33,511.123c-7.359,0-13.319,5.963-13.319,13.32v86.208
			c0,0.435,0.352,0.788,0.785,0.788h25.066c0.435,0,0.787-0.354,0.787-0.788v-86.208
			C691.649,517.086,685.686,511.123,678.33,511.123"/>
		<path clip-path="url(#SVGID_6_)" fill="#FFAC40" d="M691.345,572.697l-2.441,47.351c-0.294,7.543,5.432,13.656,12.789,13.656
			c6.394,0,11.909-4.619,13.437-10.779l-0.295,7.611c-0.293,7.541,5.432,13.658,12.787,13.658s13.56-6.117,13.853-13.658
			l0.266-6.828c-0.293,7.541,5.432,13.657,12.789,13.657c7.356,0,13.558-6.116,13.852-13.657l0.613-15.802L691.345,572.697z"/>
		<path clip-path="url(#SVGID_6_)" fill="#FFD569" d="M705.3,561.28h-1.573c-6.922,0-12.534,5.612-12.534,12.535v44.779
			c0,7.356,5.963,13.32,13.32,13.32c7.355,0,13.32-5.964,13.32-13.32v-44.779C717.833,566.893,712.222,561.28,705.3,561.28"/>
		<path clip-path="url(#SVGID_6_)" fill="#FFD569" d="M730.851,569.578L730.851,569.578c-7.358,0-13.318,5.964-13.318,13.319v45.927
			c0,7.355,5.96,13.32,13.318,13.32c7.356,0,13.319-5.965,13.319-13.32v-45.927C744.17,575.542,738.207,569.578,730.851,569.578"/>
		<path clip-path="url(#SVGID_6_)" fill="#FFBE5E" d="M717.833,580.092L717.833,580.092c-0.195,0.905-0.301,1.844-0.301,2.806
			v45.927c0,5.335,3.143,9.924,7.673,12.051L717.833,580.092z"/>
		<path clip-path="url(#SVGID_6_)" fill="#FFD569" d="M757.491,578.665L757.491,578.665c-7.356,0-13.321,5.965-13.321,13.32v30.18
			c0,7.354,5.965,13.319,13.321,13.319s13.319-5.965,13.319-13.319v-30.18C770.811,584.63,764.848,578.665,757.491,578.665"/>
		<path clip-path="url(#SVGID_6_)" fill="#FFBE5E" d="M744.474,594.113L744.474,594.113c-0.196,0.904-0.304-0.061-0.304,0.904
			v27.286c0,5.336,3.145,9.924,7.676,12.051L744.474,594.113z"/>
	</g>
	<g>
		<defs>
			<rect id="SVGID_17_" x="430" y="134" width="500" height="500"/>
		</defs>
		<clipPath id="SVGID_18_">
			<use xlink:href="#SVGID_17_"  overflow="visible"/>
		</clipPath>
	</g>
	<rect x="430" y="134" fill="none" width="500" height="500"/>
</g>
</svg>
