<?xml version="1.0" encoding="utf-8"?>
<!-- Generator: Adobe Illustrator 15.0.0, SVG Export Plug-In . SVG Version: 6.00 Build 0)  -->
<!DOCTYPE svg PUBLIC "-//W3C//DTD SVG 1.1//EN" "http://www.w3.org/Graphics/SVG/1.1/DTD/svg11.dtd">
<svg version="1.1" id="Capa_1" xmlns="http://www.w3.org/2000/svg" xmlns:xlink="http://www.w3.org/1999/xlink" x="0px" y="0px"
	 width="300px" height="60px" viewBox="0 0 300 60" enable-background="new 0 0 300 60" xml:space="preserve">
<path fill="#85D9C4" d="M521.172,77.021c0,0-2.009-88.426-59.551-132.642c16.957-2.859,34.924-7.056,53.961-12.788
	c0,0-0.243-1.021-0.74-2.89c-5.061-15.079-11.662-29.982-20.198-44.278c0,0-45.88-75.456-117.724-85.072
	c13.06-10.839,26.318-23.296,39.731-37.558c0,0-2.183-2.305-6.201-6.154c-10.796-9.107-22.572-17.446-35.424-24.617
	c0,0-77.272-42.302-144.243-14.911c5.829-15.805,11.036-33.076,15.482-51.969c0,0-2.479-0.742-6.986-1.871
	c-14.414-2.683-29.341-4.122-44.637-3.898c0,0-87.278,1.985-131.771,58.438c-2.85-16.405-6.941-33.744-12.462-52.08
	c0,0-3.312,0.784-9.116,2.49c-13.276,4.795-26.377,10.822-39.004,18.36c0,0-73.948,44.959-84.766,115.56
	c-10.552-12.59-22.605-25.362-36.338-38.278c0,0-2.002,1.898-5.368,5.384c-9.642,11.23-18.448,23.548-25.977,37.039
	c0,0-41.408,75.623-15.782,142.082c-15.47-5.653-32.337-10.71-50.743-15.047c-3.708,16.846-5.816,34.43-5.551,52.551
	c0,0,1.95,86.137,57.319,130.893c-16.349,2.832-33.632,6.907-51.9,12.394c5.205,16.384,12.19,32.603,21.447,48.106
	c0,0,44.858,73.787,115.323,84.733c-12.856,10.692-25.902,22.953-39.099,36.959c12.679,11.558,26.811,22.085,42.548,30.866
	c0,0,75.912,41.563,142.464,15.629c-5.89,15.885-11.14,33.273-15.628,52.292c16.848,3.649,34.373,5.558,52.307,4.966
	c0,0,87.156-1.98,131.678-58.318c2.843,16.9,7.021,34.808,12.717,53.773c16.325-5.189,32.274-12.203,47.197-21.558
	c0,0,75.327-45.804,85.047-117.542c11.06,13.441,23.824,27.094,38.511,40.91c11.26-12.545,21.462-26.507,29.91-42.03
	c0,0,42.492-77.615,14.732-144.688c16.225,6.076,34.018,11.488,53.54,16.092C519.418,111.874,521.43,94.706,521.172,77.021
	 M388.305,73.266c0,0-35.142,8.982-72.37,36.664c1.174,23.885,6.675,49.691,18.584,76.928c-2.106-0.573-36.273-9.586-80.9-4.398
	c-10.897,21.108-19.059,45.987-22.456,75.26c-4.607-4.477-29.119-27.214-67.59-43.739c-19.957,12.777-39.435,30.174-57,53.721
	c-2.247-7.684-12.314-38.738-36.657-71.231c-23.612,1.129-49.103,6.479-76.003,18.073c2.014-8.391,8.549-40.022,3.758-79.776
	C-23.356,123.938-48.087,115.8-77.203,112.4c6.303-6.686,27.529-30.801,43.056-67.33C-47.01,25.142-64.498,5.705-88.143-11.808
	c9.054-2.73,39.479-13.104,71.098-36.992c-1.254-23.697-6.766-49.27-18.574-76.247c8.983,2.123,40.577,8.457,80.065,3.584
	c10.793-21.257,18.822-46.283,22.034-75.733c5.638,5.402,30.039,27.492,67.7,43.553c20.146-13.121,39.77-30.992,57.393-55.195
	c1.554,5.552,11.412,38.193,37.071,72.381c23.962-1.308,49.837-6.971,77.14-19.094c-1.155,4.413-9.363,37.92-4.232,81.094
	c21.388,10.889,46.619,18.964,76.319,22.159c-1.732,1.723-26.593,26.869-44.349,68.096c13.087,20.229,30.951,39.945,55.183,57.653
	C388.572,73.391,388.438,73.326,388.305,73.266"/>
<g>
	<g>
		<defs>
			<path id="SVGID_1_" d="M9.017,30c0,13.479,11.133,25.001,25,25.001c13.807,0,25-11.193,25-25.001s-11.193-25.001-25-25.001
				C20.209,4.999,9.017,16.192,9.017,30"/>
		</defs>
		<clipPath id="SVGID_2_">
			<use xlink:href="#SVGID_1_"  overflow="visible"/>
		</clipPath>
		<path clip-path="url(#SVGID_2_)" fill="#B2D78D" d="M28.767,40.922c1.605,2.145,2.271,4.192,2.418,4.7
			c1.159-1.555,2.444-2.703,3.761-3.545C33.255,41.35,31.157,40.807,28.767,40.922"/>
		<path clip-path="url(#SVGID_2_)" fill="#B2D78D" d="M19.1,49.653c-1.038-0.579-1.97-1.273-2.807-2.037
			c-0.007,0.008-0.014,0.016-0.021,0.022c0,0,4.868,5.125,11.196,6.496c0.296-1.255,0.644-2.402,1.031-3.45
			C24.108,52.396,19.1,49.653,19.1,49.653"/>
		<path clip-path="url(#SVGID_2_)" fill="#B2D78D" d="M49.171,44.986c-0.642,4.731-5.611,7.754-5.611,7.754
			c-0.984,0.617-2.037,1.081-3.114,1.422c0.004,0.008,0.005,0.016,0.007,0.022c0,0,6.861-1.601,11.259-6.499
			C50.742,46.772,49.9,45.872,49.171,44.986"/>
		<path clip-path="url(#SVGID_2_)" fill="#B2D78D" d="M40.886,39.997c2.945-0.342,5.198,0.252,5.338,0.29
			c-0.785-1.797-1.148-3.499-1.227-5.075C43.517,36.313,41.988,37.861,40.886,39.997"/>
		<path clip-path="url(#SVGID_2_)" fill="#B2D78D" d="M58.12,23.256c0.033,0.122,0.049,0.19,0.049,0.19
			c-1.256,0.378-2.441,0.655-3.56,0.844c3.796,2.917,3.929,8.75,3.929,8.75c0.018,1.168-0.115,2.299-0.35,3.387
			c0.006,0.001,0.009,0.004,0.014,0.004C58.202,36.431,60.25,29.604,58.12,23.256"/>
		<path clip-path="url(#SVGID_2_)" fill="#B2D78D" d="M46.157,29.001c1.172-2.72,2.812-4.378,2.927-4.492
			c-1.96-0.211-3.625-0.743-5.035-1.462C44.267,24.882,44.851,26.979,46.157,29.001"/>
		<path clip-path="url(#SVGID_2_)" fill="#B2D78D" d="M27.086,19.945c-2.604,0.321-4.689-0.095-5.282-0.235
			c0.778,1.779,1.143,3.466,1.225,5.03C24.497,23.63,26.003,22.078,27.086,19.945"/>
		<path clip-path="url(#SVGID_2_)" fill="#B2D78D" d="M16.314,12.314c0.907,0.852,1.702,1.694,2.397,2.525
			c0.714-4.658,5.593-7.624,5.593-7.624c0.833-0.498,1.697-0.896,2.572-1.211c-1.803,0.529-7.268,2.413-10.916,6.664
			C16.183,12.439,16.314,12.314,16.314,12.314"/>
		<path clip-path="url(#SVGID_2_)" fill="#B2D78D" d="M19.061,35.375c1.92,0.226,3.553,0.761,4.938,1.477
			c-0.219-1.825-0.802-3.911-2.099-5.918C20.877,33.343,19.476,34.934,19.061,35.375"/>
		<path clip-path="url(#SVGID_2_)" fill="#B2D78D" d="M9.492,26.961c-0.018-1.195,0.121-2.354,0.365-3.467
			c-0.003-0.001-0.005-0.001-0.007-0.003c0,0-1.995,6.647-0.001,12.924c1.205-0.362,2.345-0.632,3.424-0.818
			C9.62,32.646,9.492,26.961,9.492,26.961"/>
		<path clip-path="url(#SVGID_2_)" fill="#B2D78D" d="M39.238,18.957c-1.693-2.257-2.343-4.409-2.445-4.776
			c-1.163,1.597-2.458,2.776-3.786,3.642C34.71,18.55,36.828,19.088,39.238,18.957"/>
		<path clip-path="url(#SVGID_2_)" fill="#B2D78D" d="M39.38,9.23c4.418-1.808,9.516,0.983,9.516,0.983
			c0.848,0.473,1.625,1.023,2.338,1.624c-1.319-1.264-5.724-5.124-11.293-6.161c0.297,0.075,0.46,0.125,0.46,0.125
			C40.107,7.047,39.764,8.187,39.38,9.23"/>
		<path clip-path="url(#SVGID_2_)" fill="#B3DCE8" d="M18.873,45.178c-4.649-0.721-7.608-5.59-7.608-5.59
			c-0.611-1.022-1.072-2.093-1.415-3.173c-0.009,0.002-0.015,0.004-0.022,0.007c0,0,1.598,6.758,6.466,11.194
			C17.164,46.693,18.024,45.884,18.873,45.178"/>
		<g opacity="0.7" clip-path="url(#SVGID_2_)">
			<g>
				<defs>
					<rect id="SVGID_3_" x="16.293" y="40.922" width="14.892" height="10.324"/>
				</defs>
				<clipPath id="SVGID_4_">
					<use xlink:href="#SVGID_3_"  overflow="visible"/>
				</clipPath>
				<path clip-path="url(#SVGID_4_)" fill="#97B849" d="M28.499,50.685c0.757-2.042,1.674-3.708,2.686-5.063
					c-0.147-0.508-0.813-2.556-2.418-4.7c-1.559,0.075-3.24,0.427-5.015,1.19c-1.562,0.675-3.195,1.666-4.879,3.065
					c-0.849,0.706-1.709,1.516-2.58,2.438c0.837,0.764,1.769,1.458,2.807,2.037C19.1,49.653,24.108,52.396,28.499,50.685"/>
			</g>
		</g>
		<g opacity="0.7" clip-path="url(#SVGID_2_)">
			<g>
				<defs>
					<rect id="SVGID_5_" x="9.85" y="35.259" width="14.264" height="9.919"/>
				</defs>
				<clipPath id="SVGID_6_">
					<use xlink:href="#SVGID_5_"  overflow="visible"/>
				</clipPath>
				<path clip-path="url(#SVGID_6_)" fill="#97B849" d="M18.873,45.178c1.684-1.399,3.317-2.391,4.879-3.065
					c0.133-0.552,0.564-2.639,0.247-5.261c-1.386-0.716-3.019-1.251-4.938-1.477c-1.697-0.198-3.617-0.154-5.787,0.222
					c-1.079,0.187-2.219,0.456-3.424,0.818c0.343,1.08,0.804,2.15,1.415,3.173C11.265,39.588,14.224,44.457,18.873,45.178"/>
			</g>
		</g>
		<path clip-path="url(#SVGID_2_)" fill="#B3DCE8" d="M30.919,54.462c-1.184,0.039-2.34-0.087-3.451-0.327
			c-0.001,0.008-0.003,0.012-0.005,0.021c0,0,6.891,1.943,12.982,0.007c-0.376-1.251-0.651-2.432-0.839-3.549
			C36.669,54.331,30.919,54.462,30.919,54.462"/>
		<g opacity="0.7" clip-path="url(#SVGID_2_)">
			<g>
				<defs>
					<rect id="SVGID_7_" x="27.468" y="42.077" width="12.139" height="12.392"/>
				</defs>
				<clipPath id="SVGID_8_">
					<use xlink:href="#SVGID_7_"  overflow="visible"/>
				</clipPath>
				<path clip-path="url(#SVGID_8_)" fill="#97B849" d="M30.919,54.462c0,0,5.75-0.131,8.688-3.849
					c-0.355-2.112-0.395-3.989-0.202-5.652c-0.304-0.294-1.921-1.793-4.459-2.884c-1.316,0.842-2.602,1.99-3.761,3.545
					c-1.012,1.354-1.929,3.021-2.686,5.063c-0.388,1.048-0.735,2.195-1.031,3.45C28.579,54.375,29.735,54.501,30.919,54.462"/>
			</g>
		</g>
		<g opacity="0.7" clip-path="url(#SVGID_2_)">
			<g>
				<defs>
					<rect id="SVGID_9_" x="39.289" y="39.891" width="9.881" height="14.271"/>
				</defs>
				<clipPath id="SVGID_10_">
					<use xlink:href="#SVGID_9_"  overflow="visible"/>
				</clipPath>
				<path clip-path="url(#SVGID_10_)" fill="#97B849" d="M49.171,44.986c-1.332-1.62-2.288-3.193-2.947-4.699
					c-0.14-0.038-2.393-0.632-5.338-0.29c-0.719,1.393-1.257,3.034-1.481,4.964c-0.192,1.663-0.153,3.54,0.202,5.652
					c0.188,1.117,0.463,2.298,0.839,3.549c1.077-0.341,2.13-0.805,3.114-1.422C43.56,52.74,48.529,49.718,49.171,44.986"/>
			</g>
		</g>
		<path clip-path="url(#SVGID_2_)" fill="#B3DCE8" d="M53.685,44.91c-0.557,1.026-1.23,1.947-1.974,2.775
			c0.002,0,0.002,0.001,0.003,0.002c0,0,5.085-4.794,6.475-11.261c-1.288-0.303-2.461-0.66-3.533-1.061
			C56.487,39.791,53.685,44.91,53.685,44.91"/>
		<g opacity="0.7" clip-path="url(#SVGID_2_)">
			<g>
				<defs>
					<rect id="SVGID_11_" x="44.997" y="32.793" width="10.28" height="14.893"/>
				</defs>
				<clipPath id="SVGID_12_">
					<use xlink:href="#SVGID_11_"  overflow="visible"/>
				</clipPath>
				<path clip-path="url(#SVGID_12_)" fill="#97B849" d="M54.655,35.366c-1.94-0.727-3.541-1.601-4.856-2.561
					c-0.009-0.005-0.019-0.009-0.027-0.013c0,0-2.317,0.593-4.774,2.419c0.078,1.576,0.441,3.278,1.227,5.075
					c0.659,1.506,1.615,3.079,2.947,4.699c0.729,0.886,1.571,1.786,2.54,2.699c0.743-0.828,1.417-1.749,1.974-2.775
					C53.685,44.91,56.487,39.791,54.655,35.366"/>
			</g>
		</g>
		<g opacity="0.7" clip-path="url(#SVGID_2_)">
			<g>
				<defs>
					<rect id="SVGID_13_" x="46.157" y="24.29" width="12.382" height="12.137"/>
				</defs>
				<clipPath id="SVGID_14_">
					<use xlink:href="#SVGID_13_"  overflow="visible"/>
				</clipPath>
				<path clip-path="url(#SVGID_14_)" fill="#97B849" d="M54.609,24.29c-2.061,0.348-3.896,0.395-5.525,0.219
					c-0.115,0.114-1.755,1.772-2.927,4.492c0.864,1.335,2.043,2.637,3.642,3.805c1.315,0.96,2.916,1.834,4.856,2.561
					c1.072,0.4,2.245,0.758,3.533,1.061c0.234-1.088,0.367-2.219,0.35-3.387C58.538,33.04,58.405,27.207,54.609,24.29"/>
			</g>
		</g>
		<path clip-path="url(#SVGID_2_)" fill="#B3DCE8" d="M51.643,12.243c-0.886,0.941-1.76,1.764-2.621,2.479
			c4.739,0.635,7.767,5.611,7.767,5.611c0.563,0.944,0.999,1.929,1.332,2.923c-0.309-1.164-2.152-7.424-6.887-11.418
			C51.497,12.092,51.643,12.243,51.643,12.243"/>
		<g opacity="0.7" clip-path="url(#SVGID_2_)">
			<g>
				<defs>
					<rect id="SVGID_15_" x="43.938" y="14.722" width="14.23" height="9.887"/>
				</defs>
				<clipPath id="SVGID_16_">
					<use xlink:href="#SVGID_15_"  overflow="visible"/>
				</clipPath>
				<path clip-path="url(#SVGID_16_)" fill="#97B849" d="M49.021,14.722c-1.617,1.342-3.188,2.307-4.693,2.975
					c-0.077,0.291-0.618,2.502-0.279,5.351c1.41,0.719,3.076,1.251,5.035,1.462c1.63,0.176,3.465,0.129,5.525-0.219
					c1.118-0.188,2.304-0.466,3.56-0.844c0,0-0.016-0.068-0.049-0.19c-0.333-0.995-0.769-1.979-1.332-2.923
					C56.788,20.333,53.761,15.356,49.021,14.722"/>
			</g>
		</g>
		<g opacity="0.7" clip-path="url(#SVGID_2_)">
			<g>
				<defs>
					<rect id="SVGID_17_" x="36.792" y="8.62" width="14.851" height="10.337"/>
				</defs>
				<clipPath id="SVGID_18_">
					<use xlink:href="#SVGID_17_"  overflow="visible"/>
				</clipPath>
				<path clip-path="url(#SVGID_18_)" fill="#97B849" d="M39.38,9.23c-0.731,1.982-1.613,3.612-2.587,4.95
					c0.103,0.367,0.752,2.52,2.445,4.776c1.581-0.086,3.288-0.46,5.089-1.261c1.506-0.668,3.077-1.633,4.694-2.975
					c0.861-0.715,1.735-1.537,2.621-2.479c0,0-0.146-0.151-0.409-0.405c-0.713-0.601-1.49-1.151-2.338-1.624
					C48.896,10.214,43.798,7.423,39.38,9.23"/>
			</g>
		</g>
		<path clip-path="url(#SVGID_2_)" fill="#B3DCE8" d="M14.247,15.113c0.496-0.891,1.077-1.703,1.714-2.444
			c-1.169,1.21-4.915,5.427-6.104,10.825c1.215,0.286,2.328,0.619,3.348,0.992C11.516,20.103,14.247,15.113,14.247,15.113"/>
		<g opacity="0.7" clip-path="url(#SVGID_2_)">
			<g>
				<defs>
					<rect id="SVGID_19_" x="12.653" y="12.314" width="10.375" height="14.865"/>
				</defs>
				<clipPath id="SVGID_20_">
					<use xlink:href="#SVGID_19_"  overflow="visible"/>
				</clipPath>
				<path clip-path="url(#SVGID_20_)" fill="#97B849" d="M13.205,24.486c2.071,0.757,3.76,1.677,5.134,2.693
					c0.597-0.179,2.604-0.864,4.689-2.439c-0.082-1.564-0.446-3.251-1.226-5.03c-0.682-1.56-1.683-3.191-3.091-4.87
					c-0.695-0.831-1.49-1.674-2.397-2.525c0,0-0.132,0.125-0.354,0.354c-0.637,0.741-1.218,1.554-1.714,2.444
					C14.247,15.113,11.516,20.102,13.205,24.486"/>
			</g>
		</g>
		<g opacity="0.7" clip-path="url(#SVGID_2_)">
			<g>
				<defs>
					<rect id="SVGID_21_" x="9.49" y="23.493" width="12.41" height="12.104"/>
				</defs>
				<clipPath id="SVGID_22_">
					<use xlink:href="#SVGID_21_"  overflow="visible"/>
				</clipPath>
				<path clip-path="url(#SVGID_22_)" fill="#97B849" d="M13.273,35.597c2.17-0.376,4.09-0.42,5.787-0.222
					c0.415-0.441,1.816-2.032,2.84-4.441c-0.849-1.315-2.001-2.599-3.562-3.754c-1.374-1.017-3.063-1.937-5.134-2.693
					c-1.02-0.373-2.133-0.706-3.348-0.992c-0.244,1.112-0.383,2.271-0.365,3.467C9.492,26.961,9.62,32.646,13.273,35.597"/>
			</g>
		</g>
		<path clip-path="url(#SVGID_2_)" fill="#B3DCE8" d="M28.302,9.276c2.936-3.725,8.693-3.856,8.693-3.856
			c1.009-0.015,1.993,0.081,2.944,0.257c-1.667-0.417-7.593-1.647-13.063,0.328c0.384-0.113,0.603-0.164,0.603-0.164
			C27.844,7.049,28.113,8.194,28.302,9.276"/>
		<g opacity="0.7" clip-path="url(#SVGID_2_)">
			<g>
				<defs>
					<rect id="SVGID_23_" x="18.712" y="5.841" width="9.93" height="14.224"/>
				</defs>
				<clipPath id="SVGID_24_">
					<use xlink:href="#SVGID_23_"  overflow="visible"/>
				</clipPath>
				<path clip-path="url(#SVGID_24_)" fill="#97B849" d="M18.712,14.84c1.408,1.679,2.409,3.311,3.092,4.87
					c0.593,0.141,2.678,0.557,5.282,0.235c0.712-1.402,1.242-3.054,1.453-4.995c0.183-1.67,0.131-3.553-0.237-5.674
					c-0.188-1.082-0.458-2.228-0.822-3.436c0,0-0.219,0.051-0.603,0.164c-0.875,0.315-1.739,0.713-2.572,1.211
					C24.305,7.216,19.426,10.182,18.712,14.84"/>
			</g>
		</g>
		<g opacity="0.7" clip-path="url(#SVGID_2_)">
			<g>
				<defs>
					<rect id="SVGID_25_" x="28.302" y="5.419" width="12.1" height="12.403"/>
				</defs>
				<clipPath id="SVGID_26_">
					<use xlink:href="#SVGID_25_"  overflow="visible"/>
				</clipPath>
				<path clip-path="url(#SVGID_26_)" fill="#97B849" d="M28.302,9.276c0.368,2.121,0.42,4.004,0.237,5.674
					c0.373,0.354,1.982,1.813,4.468,2.872c1.328-0.865,2.623-2.045,3.786-3.642c0.974-1.338,1.855-2.968,2.587-4.95
					c0.384-1.044,0.728-2.184,1.021-3.429c0,0-0.163-0.05-0.461-0.125c-0.951-0.176-1.936-0.271-2.944-0.257
					C36.995,5.42,31.237,5.552,28.302,9.276"/>
			</g>
		</g>
		<path clip-path="url(#SVGID_2_)" fill="#85D9C4" d="M58.538,33.04c0,0-0.133-5.833-3.929-8.75c1.118-0.188,2.304-0.466,3.56-0.844
			c0,0-0.016-0.068-0.049-0.19c-0.333-0.994-0.769-1.979-1.332-2.923c0,0-3.027-4.978-7.767-5.611
			c0.861-0.715,1.735-1.537,2.621-2.479c0,0-0.146-0.151-0.41-0.405c-0.712-0.601-1.489-1.151-2.337-1.624
			c0,0-5.098-2.791-9.516-0.983c0.384-1.044,0.728-2.184,1.021-3.429c0,0-0.163-0.05-0.461-0.125
			c-0.951-0.176-1.936-0.271-2.944-0.257c0,0-5.758,0.132-8.693,3.856c-0.188-1.082-0.458-2.228-0.822-3.436
			c0,0-0.219,0.051-0.603,0.164c-0.875,0.315-1.739,0.713-2.572,1.211c0,0-4.879,2.966-5.593,7.624
			c-0.695-0.831-1.49-1.674-2.397-2.525c0,0-0.132,0.125-0.354,0.354c-0.637,0.741-1.217,1.554-1.714,2.444
			c0,0-2.731,4.989-1.042,9.373c-1.02-0.373-2.133-0.706-3.348-0.992c-0.244,1.112-0.383,2.271-0.365,3.467
			c0,0,0.128,5.685,3.781,8.636c-1.079,0.187-2.219,0.456-3.424,0.818c0.343,1.08,0.804,2.15,1.415,3.173
			c0,0,2.959,4.869,7.608,5.59c-0.849,0.706-1.709,1.516-2.58,2.438c0.837,0.764,1.769,1.458,2.807,2.037
			c0,0,5.009,2.742,9.399,1.031c-0.388,1.048-0.735,2.195-1.031,3.45c1.111,0.24,2.268,0.366,3.451,0.327
			c0,0,5.75-0.131,8.688-3.849c0.188,1.117,0.463,2.298,0.839,3.549c1.077-0.341,2.13-0.805,3.114-1.422c0,0,4.97-3.022,5.611-7.754
			c0.729,0.886,1.571,1.786,2.54,2.699c0.743-0.828,1.417-1.749,1.974-2.775c0,0,2.803-5.119,0.971-9.544
			c1.072,0.4,2.245,0.758,3.533,1.061C58.423,35.339,58.556,34.208,58.538,33.04 M49.771,32.793c0,0-2.317,0.593-4.774,2.419
			c0.078,1.576,0.441,3.278,1.227,5.075c-0.14-0.038-2.393-0.632-5.338-0.29c-0.719,1.393-1.257,3.034-1.481,4.964
			c-0.304-0.294-1.921-1.793-4.459-2.884c-1.316,0.842-2.602,1.99-3.761,3.545c-0.147-0.508-0.813-2.556-2.418-4.7
			c-1.559,0.075-3.24,0.427-5.015,1.19c0.133-0.552,0.564-2.639,0.247-5.261c-1.386-0.716-3.019-1.251-4.938-1.477
			c0.415-0.441,1.816-2.032,2.84-4.441c-0.849-1.315-2.001-2.599-3.562-3.754c0.597-0.179,2.604-0.864,4.689-2.439
			c-0.082-1.564-0.446-3.251-1.225-5.03c0.593,0.141,2.678,0.557,5.282,0.235c0.713-1.402,1.242-3.054,1.453-4.995
			c0.373,0.354,1.982,1.813,4.468,2.872c1.328-0.865,2.623-2.045,3.786-3.642c0.103,0.367,0.752,2.52,2.445,4.776
			c1.581-0.086,3.288-0.46,5.089-1.261c-0.076,0.291-0.617,2.502-0.278,5.351c1.41,0.719,3.076,1.251,5.035,1.462
			c-0.115,0.114-1.755,1.772-2.927,4.492c0.864,1.335,2.043,2.637,3.642,3.805C49.79,32.801,49.78,32.797,49.771,32.793"/>
		<path clip-path="url(#SVGID_2_)" fill="#B3DCE8" d="M23.999,36.852c0.317,2.622-0.114,4.709-0.247,5.261
			c1.774-0.764,3.456-1.115,5.015-1.19C27.666,39.453,26.121,37.942,23.999,36.852"/>
		<path clip-path="url(#SVGID_2_)" fill="#B3DCE8" d="M39.404,44.961c0.225-1.93,0.763-3.571,1.481-4.964
			c-1.827,0.213-3.921,0.787-5.94,2.08C37.483,43.168,39.101,44.667,39.404,44.961"/>
		<path clip-path="url(#SVGID_2_)" fill="#B3DCE8" d="M44.997,35.212c2.457-1.826,4.774-2.419,4.774-2.419
			c0.009,0.004,0.019,0.008,0.027,0.013c-1.599-1.168-2.777-2.47-3.642-3.805C45.428,30.698,44.879,32.807,44.997,35.212"/>
		<path clip-path="url(#SVGID_2_)" fill="#B3DCE8" d="M44.049,23.047c-0.339-2.849,0.202-5.06,0.278-5.351
			c-1.801,0.801-3.508,1.175-5.089,1.261C40.349,20.434,41.905,21.956,44.049,23.047"/>
		<path clip-path="url(#SVGID_2_)" fill="#B3DCE8" d="M23.028,24.74c-2.086,1.575-4.093,2.261-4.689,2.439
			c1.561,1.155,2.713,2.438,3.562,3.754C22.622,29.236,23.156,27.134,23.028,24.74"/>
		<path clip-path="url(#SVGID_2_)" fill="#B3DCE8" d="M28.539,14.95c-0.211,1.941-0.741,3.593-1.453,4.995
			c1.828-0.225,3.914-0.815,5.921-2.123C30.521,16.763,28.912,15.305,28.539,14.95"/>
	</g>
	<g>
		<path fill="#626264" d="M86.131,38.034c-0.404,0.153-0.751,0.278-1.038,0.377c-0.288,0.099-0.565,0.188-0.83,0.271
			c-0.266,0.081-0.649,0.183-1.153,0.311c-0.855,0.197-1.707,0.348-2.557,0.451c-0.851,0.104-1.747,0.155-2.691,0.155
			c-1.897,0-3.651-0.346-5.262-1.04c-1.609-0.691-2.897-1.767-3.863-3.223c-0.969-1.458-1.452-3.246-1.452-5.37
			c0-1.366,0.25-2.709,0.75-4.026c0.498-1.317,1.262-2.372,2.287-3.163c0.845-0.657,1.7-1.158,2.569-1.505
			c0.867-0.346,1.715-0.577,2.542-0.693c0.827-0.117,1.741-0.177,2.739-0.177c1.646,0,3.003,0.125,4.074,0.372
			c1.069,0.247,2.243,0.573,3.521,0.978v4.425c-0.847-0.494-1.741-0.907-2.687-1.241c-0.942-0.333-2.121-0.499-3.533-0.499
			c-1.629,0-2.93,0.308-3.906,0.924c-0.977,0.615-1.654,1.352-2.037,2.206c-0.382,0.854-0.572,1.681-0.572,2.481
			c0,0.944,0.22,1.814,0.661,2.61c0.439,0.797,1.106,1.434,1.996,1.917c0.891,0.48,1.965,0.721,3.224,0.721
			c0.72,0,1.484-0.096,2.294-0.284v-2.198h-2.536v-3.764h7.46V38.034z"/>
		<path fill="#626264" d="M107.705,39.355h-6.056l-1.471-3.317c-0.54-1.215-1.025-2.103-1.457-2.666
			c-0.432-0.563-0.853-0.921-1.262-1.078c-0.41-0.158-0.938-0.236-1.585-0.236h-0.634v7.298h-5.639V20.658h9.592
			c1.545,0,2.813,0.314,3.804,0.943c0.988,0.631,1.701,1.396,2.138,2.294c0.437,0.9,0.654,1.755,0.654,2.563
			c0,0.945-0.182,1.744-0.546,2.396c-0.365,0.652-0.75,1.126-1.153,1.424c-0.404,0.296-0.859,0.579-1.363,0.85
			c0.603,0.351,1.1,0.767,1.491,1.247c0.391,0.482,0.924,1.455,1.599,2.921L107.705,39.355z M100.043,26.566
			c0-0.863-0.283-1.465-0.849-1.807c-0.567-0.343-1.49-0.514-2.767-0.514h-1.187v4.506h1.214c1.377,0,2.318-0.149,2.826-0.452
			C99.789,27.999,100.043,27.421,100.043,26.566"/>
		<path fill="#626264" d="M128.392,30.978c0,1.601-0.3,2.966-0.898,4.094c-0.6,1.131-1.39,2.023-2.374,2.68
			c-0.986,0.658-2.047,1.127-3.184,1.417c-1.138,0.286-2.274,0.431-3.407,0.431c-1.582,0-3.122-0.271-4.62-0.811
			c-1.497-0.539-2.749-1.456-3.757-2.75c-1.007-1.297-1.511-2.982-1.511-5.061V20.658h5.625v8.863c0,1.232,0.178,2.251,0.533,3.057
			c0.354,0.803,0.851,1.393,1.484,1.767c0.634,0.372,1.382,0.561,2.245,0.561c0.828,0,1.561-0.187,2.199-0.555
			c0.639-0.369,1.136-0.953,1.491-1.753c0.356-0.801,0.533-1.817,0.533-3.05v-8.89h5.64V30.978z"/>
		<path fill="#626264" d="M148.034,26.54c0,0.692-0.117,1.368-0.354,2.03c-0.24,0.661-0.623,1.277-1.155,1.848
			c-0.53,0.572-1.247,1.035-2.15,1.39c-0.905,0.355-1.968,0.533-3.19,0.533h-3.697v7.015h-5.639V20.658h9.336
			c1.223,0,2.285,0.181,3.19,0.54c0.903,0.36,1.62,0.827,2.15,1.403c0.532,0.574,0.915,1.2,1.155,1.874
			C147.917,25.15,148.034,25.839,148.034,26.54 M142.288,26.566c0-0.891-0.262-1.499-0.788-1.827
			c-0.526-0.329-1.468-0.493-2.825-0.493h-1.188v4.506h1.215c0.935,0,1.654-0.059,2.157-0.176c0.505-0.116,0.869-0.332,1.094-0.647
			C142.177,27.615,142.288,27.16,142.288,26.566"/>
		<path fill="#626264" d="M170.204,29.993c0,1.745-0.402,3.35-1.206,4.816c-0.807,1.466-2.006,2.629-3.596,3.495
			c-1.592,0.863-3.53,1.294-5.815,1.294c-2.312,0-4.266-0.45-5.868-1.35c-1.601-0.897-2.789-2.083-3.567-3.547
			c-0.777-1.466-1.167-3.036-1.167-4.709c0-1.683,0.386-3.254,1.16-4.714c0.772-1.463,1.964-2.64,3.567-3.536
			c1.605-0.894,3.563-1.342,5.875-1.342c1.728,0,3.268,0.257,4.621,0.769c1.354,0.514,2.466,1.209,3.34,2.085
			c0.871,0.877,1.531,1.898,1.982,3.063C169.979,27.482,170.204,28.707,170.204,29.993 M164.458,29.993
			c0-0.701-0.104-1.342-0.31-1.923c-0.208-0.58-0.521-1.084-0.938-1.51c-0.418-0.427-0.929-0.76-1.53-0.999
			c-0.604-0.238-1.301-0.356-2.093-0.356c-1.51,0-2.697,0.439-3.56,1.322c-0.864,0.88-1.297,2.036-1.297,3.466
			s0.435,2.588,1.303,3.475c0.867,0.886,2.052,1.328,3.554,1.328c1.035,0,1.916-0.205,2.646-0.615
			c0.728-0.406,1.28-0.975,1.659-1.698C164.27,31.759,164.458,30.929,164.458,29.993"/>
		<path fill="#626264" d="M196.723,37.952c-0.775,0.404-1.567,0.729-2.376,0.973s-1.625,0.415-2.449,0.519
			c-0.822,0.104-1.674,0.155-2.557,0.155c-1.627,0-3.085-0.224-4.378-0.674c-1.288-0.451-2.408-1.114-3.357-1.991
			c-0.949-0.876-1.659-1.9-2.132-3.075c-0.473-1.174-0.708-2.462-0.708-3.865c0-1.609,0.278-3.021,0.837-4.229
			c0.557-1.209,1.338-2.214,2.34-3.015c1.003-0.8,2.146-1.392,3.426-1.773c1.283-0.383,2.635-0.574,4.056-0.574
			c2.121,0,4.527,0.473,7.217,1.417v4.965c-0.926-0.576-1.841-1.056-2.744-1.438c-0.904-0.382-1.969-0.573-3.192-0.573
			c-1.087,0-2.103,0.215-3.048,0.648c-0.944,0.432-1.703,1.047-2.28,1.848c-0.575,0.801-0.863,1.735-0.863,2.806
			c0,0.944,0.252,1.81,0.755,2.597c0.504,0.786,1.203,1.412,2.099,1.876c0.894,0.462,1.903,0.694,3.029,0.694
			c0.906,0,1.767-0.109,2.575-0.331c0.811-0.222,1.49-0.465,2.044-0.734c0.553-0.271,1.12-0.59,1.708-0.959V37.952z"/>
		<path fill="#626264" d="M239.805,39.355h-6.06l-1.469-3.317c-0.541-1.215-1.024-2.103-1.458-2.666
			c-0.432-0.563-0.853-0.921-1.26-1.078c-0.409-0.158-0.938-0.236-1.586-0.236h-0.634v7.298h-5.64V20.658h9.591
			c1.548,0,2.816,0.314,3.805,0.943c0.99,0.631,1.703,1.396,2.141,2.294c0.435,0.9,0.652,1.755,0.652,2.563
			c0,0.945-0.183,1.744-0.546,2.396c-0.363,0.652-0.749,1.126-1.152,1.424c-0.407,0.296-0.86,0.579-1.363,0.85
			c0.601,0.351,1.099,0.767,1.491,1.247c0.391,0.482,0.924,1.455,1.598,2.921L239.805,39.355z M232.143,26.566
			c0-0.863-0.285-1.465-0.853-1.807c-0.565-0.343-1.488-0.514-2.763-0.514h-1.188v4.506h1.212c1.377,0,2.318-0.149,2.826-0.452
			C231.886,27.999,232.143,27.421,232.143,26.566"/>
		<path fill="#626264" d="M254.471,33.919c0,1.169-0.297,2.182-0.897,3.037c-0.599,0.854-1.431,1.507-2.502,1.961
			c-1.07,0.455-2.296,0.682-3.681,0.682c-0.389,0-0.863-0.023-1.426-0.073c-0.562-0.049-1.309-0.189-2.239-0.413
			s-1.899-0.557-2.905-0.999v-4.585c0.942,0.584,1.871,1.07,2.785,1.456c0.912,0.388,1.891,0.581,2.933,0.581
			c0.964,0,1.587-0.161,1.869-0.48c0.283-0.316,0.425-0.617,0.425-0.896c0-0.503-0.243-0.929-0.729-1.275
			c-0.486-0.347-1.19-0.703-2.117-1.071c-1.026-0.433-1.925-0.903-2.697-1.411c-0.775-0.508-1.406-1.145-1.896-1.908
			c-0.491-0.765-0.737-1.669-0.737-2.712c0-1.008,0.249-1.917,0.743-2.732c0.494-0.813,1.251-1.463,2.267-1.948
			c1.016-0.486,2.259-0.729,3.725-0.729c1.043,0,2.007,0.102,2.892,0.305c0.885,0.202,1.617,0.429,2.192,0.68
			c0.577,0.253,0.973,0.451,1.188,0.595v4.384c-0.765-0.549-1.616-1.039-2.555-1.471c-0.943-0.432-1.947-0.647-3.019-0.647
			c-0.698,0-1.209,0.136-1.523,0.404c-0.314,0.271-0.473,0.604-0.473,1c0,0.369,0.158,0.688,0.473,0.957
			c0.314,0.271,0.877,0.598,1.688,0.984c1.439,0.675,2.589,1.282,3.452,1.821c0.866,0.539,1.54,1.163,2.032,1.869
			C254.226,31.988,254.471,32.867,254.471,33.919"/>
		<polygon fill="#626264" points="271.432,39.355 257.336,39.355 257.336,20.658 271.202,20.658 271.202,24.409 262.975,24.409 
			262.975,27.835 270.825,27.835 270.825,31.6 262.975,31.6 262.975,35.593 271.432,35.593 		"/>
		<path fill="#626264" d="M290.983,37.952c-0.772,0.404-1.565,0.729-2.373,0.973c-0.811,0.243-1.625,0.415-2.449,0.519
			c-0.822,0.104-1.674,0.155-2.556,0.155c-1.628,0-3.087-0.224-4.378-0.674c-1.292-0.451-2.411-1.114-3.358-1.991
			c-0.951-0.876-1.661-1.9-2.133-3.075c-0.473-1.174-0.708-2.462-0.708-3.865c0-1.609,0.279-3.021,0.836-4.229
			c0.558-1.209,1.338-2.214,2.341-3.015c1.002-0.8,2.146-1.392,3.427-1.773c1.28-0.383,2.632-0.574,4.055-0.574
			c2.123,0,4.528,0.473,7.218,1.417v4.965c-0.929-0.576-1.844-1.056-2.747-1.438s-1.967-0.573-3.189-0.573
			c-1.09,0-2.105,0.215-3.05,0.648c-0.942,0.432-1.704,1.047-2.278,1.848c-0.575,0.801-0.865,1.735-0.865,2.806
			c0,0.944,0.254,1.81,0.756,2.597c0.503,0.786,1.204,1.412,2.098,1.876c0.896,0.462,1.906,0.694,3.029,0.694
			c0.909,0,1.767-0.109,2.577-0.331c0.809-0.222,1.49-0.465,2.042-0.734c0.555-0.271,1.122-0.59,1.707-0.959V37.952z"/>
		<path fill="#B2D78D" d="M218.485,26.317c-0.45-1.164-1.11-2.186-1.984-3.063c-0.871-0.876-1.985-1.571-3.338-2.085
			c-1.354-0.512-2.894-0.769-4.62-0.769c-2.313,0-4.271,0.448-5.876,1.342c-1.605,0.896-2.793,2.073-3.565,3.536
			c-0.776,1.46-1.162,3.031-1.162,4.714c0,1.673,0.388,3.243,1.166,4.709c0.779,1.464,1.967,2.649,3.569,3.547
			c1.035,0.583,2.224,0.973,3.556,1.178v-7.25c0,0-0.271-4.387,4.389-5.789c0,0,1.131,5.472-3.665,7.373v5.759
			c0.511,0.052,1.037,0.079,1.589,0.079c2.284,0,4.223-0.431,5.814-1.294c1.592-0.866,2.79-2.029,3.593-3.495
			c0.806-1.467,1.21-3.071,1.21-4.816C219.16,28.707,218.934,27.482,218.485,26.317"/>
	</g>
</g>
</svg>
