<?xml version="1.0" encoding="utf-8"?>
<!-- Generator: Adobe Illustrator 15.0.0, SVG Export Plug-In . SVG Version: 6.00 Build 0)  -->
<!DOCTYPE svg PUBLIC "-//W3C//DTD SVG 1.1//EN" "http://www.w3.org/Graphics/SVG/1.1/DTD/svg11.dtd">
<svg version="1.1" id="Capa_1" xmlns="http://www.w3.org/2000/svg" xmlns:xlink="http://www.w3.org/1999/xlink" x="0px" y="0px"
	 width="300px" height="50px" viewBox="0 0 300 50" enable-background="new 0 0 300 50" xml:space="preserve">
<g>
	<path fill="#FFFFFF" d="M62.598,33.91c-0.47,0.178-0.871,0.324-1.205,0.438c-0.333,0.118-0.654,0.222-0.962,0.314
		c-0.306,0.094-0.752,0.213-1.335,0.358c-0.992,0.229-1.979,0.406-2.964,0.524c-0.984,0.12-2.026,0.18-3.118,0.18
		c-2.199,0-4.233-0.4-6.099-1.204c-1.865-0.803-3.356-2.047-4.478-3.735c-1.121-1.688-1.68-3.764-1.68-6.223
		c0-1.584,0.288-3.14,0.866-4.665c0.579-1.528,1.461-2.75,2.651-3.668c0.979-0.76,1.971-1.342,2.978-1.743
		c1.005-0.401,1.988-0.669,2.946-0.805c0.959-0.135,2.016-0.203,3.173-0.203c1.908,0,3.48,0.144,4.721,0.431
		c1.241,0.286,2.6,0.662,4.081,1.132v5.128c-0.979-0.575-2.017-1.052-3.111-1.438c-1.095-0.386-2.46-0.578-4.097-0.578
		c-1.886,0-3.394,0.354-4.527,1.068c-1.129,0.714-1.917,1.565-2.361,2.557c-0.441,0.99-0.663,1.949-0.663,2.877
		c0,1.093,0.255,2.101,0.766,3.025c0.511,0.92,1.282,1.663,2.313,2.219c1.034,0.558,2.277,0.836,3.737,0.836
		c0.834,0,1.721-0.108,2.659-0.328V27.86h-2.938V23.5h8.645V33.91z"/>
	<path fill="#FFFFFF" d="M87.601,35.443h-7.02l-1.704-3.847c-0.626-1.406-1.188-2.435-1.688-3.088
		c-0.501-0.65-0.987-1.068-1.461-1.25s-1.087-0.272-1.837-0.272h-0.733v8.457H66.62V13.774h11.117c1.792,0,3.261,0.366,4.408,1.096
		c1.146,0.729,1.972,1.615,2.479,2.658c0.506,1.042,0.758,2.03,0.758,2.97c0,1.095-0.213,2.019-0.633,2.774
		c-0.422,0.757-0.868,1.305-1.337,1.65c-0.469,0.344-0.995,0.671-1.578,0.986c0.696,0.404,1.272,0.887,1.726,1.443
		c0.454,0.559,1.072,1.687,1.854,3.385L87.601,35.443z M78.72,20.623c0-0.999-0.327-1.699-0.983-2.096
		c-0.658-0.396-1.727-0.591-3.205-0.591h-1.375v5.22h1.406c1.595,0,2.686-0.175,3.275-0.525
		C78.425,22.283,78.72,21.614,78.72,20.623"/>
	<path fill="#FFFFFF" d="M111.571,25.736c0,1.854-0.348,3.436-1.041,4.742c-0.691,1.309-1.609,2.343-2.751,3.104
		c-1.143,0.761-2.37,1.308-3.689,1.641c-1.319,0.332-2.634,0.501-3.947,0.501c-1.835,0-3.621-0.314-5.354-0.938
		c-1.736-0.623-3.187-1.688-4.354-3.189c-1.168-1.501-1.752-3.455-1.752-5.86V13.775h6.519v10.271c0,1.427,0.206,2.607,0.618,3.541
		c0.412,0.933,0.983,1.615,1.719,2.047c0.735,0.433,1.604,0.649,2.604,0.649c0.958,0,1.807-0.214,2.547-0.64
		c0.741-0.429,1.316-1.106,1.727-2.034c0.414-0.927,0.619-2.104,0.619-3.531V13.775h6.534V25.736z"/>
	<path fill="#FFFFFF" d="M134.34,20.592c0,0.801-0.14,1.584-0.416,2.352c-0.277,0.767-0.722,1.48-1.336,2.144
		c-0.616,0.66-1.446,1.197-2.495,1.609c-1.047,0.412-2.281,0.618-3.696,0.618h-4.283v8.129h-6.535V13.774h10.818
		c1.415,0,2.649,0.209,3.696,0.627c1.048,0.417,1.879,0.957,2.495,1.625c0.614,0.667,1.059,1.391,1.336,2.173
		C134.2,18.979,134.34,19.778,134.34,20.592 M127.679,20.623c0-1.031-0.305-1.738-0.917-2.118c-0.607-0.381-1.699-0.569-3.272-0.569
		h-1.375v5.22h1.406c1.083,0,1.918-0.068,2.502-0.203c0.583-0.137,1.005-0.387,1.266-0.751
		C127.55,21.836,127.679,21.31,127.679,20.623"/>
	<path fill="#FFFFFF" d="M160.03,24.592c0,2.024-0.468,3.884-1.399,5.583c-0.933,1.699-2.324,3.049-4.165,4.048
		c-1.846,1.002-4.091,1.502-6.739,1.502c-2.68,0-4.946-0.521-6.801-1.562c-1.857-1.043-3.235-2.415-4.135-4.112
		c-0.9-1.7-1.354-3.52-1.354-5.459c0-1.948,0.451-3.769,1.346-5.462c0.896-1.693,2.275-3.059,4.135-4.096
		c1.86-1.037,4.129-1.555,6.81-1.555c2,0,3.787,0.297,5.353,0.891c1.568,0.595,2.86,1.398,3.869,2.416
		c1.011,1.016,1.776,2.199,2.3,3.549C159.77,21.684,160.03,23.103,160.03,24.592 M153.371,24.592c0-0.811-0.121-1.555-0.361-2.226
		s-0.603-1.255-1.088-1.75c-0.481-0.495-1.074-0.881-1.771-1.157c-0.699-0.278-1.507-0.415-2.424-0.415
		c-1.751,0-3.128,0.51-4.13,1.532c-0.997,1.022-1.497,2.36-1.497,4.016c0,1.658,0.501,3.001,1.508,4.027
		c1.005,1.027,2.378,1.541,4.12,1.541c1.198,0,2.218-0.238,3.061-0.712c0.847-0.475,1.486-1.132,1.926-1.97
		C153.152,26.639,153.371,25.679,153.371,24.592"/>
	<path fill="#FFFFFF" d="M190.758,33.818c-0.894,0.467-1.812,0.844-2.75,1.123c-0.938,0.282-1.884,0.483-2.836,0.604
		c-0.957,0.12-1.943,0.178-2.964,0.178c-1.887,0-3.576-0.26-5.072-0.781c-1.497-0.521-2.795-1.287-3.895-2.304
		c-1.099-1.018-1.923-2.204-2.471-3.565c-0.544-1.359-0.819-2.853-0.819-4.477c0-1.868,0.323-3.5,0.97-4.902
		s1.549-2.568,2.715-3.496c1.158-0.926,2.483-1.611,3.966-2.055c1.487-0.441,3.053-0.665,4.7-0.665c2.458,0,5.247,0.549,8.364,1.641
		v5.753c-1.074-0.666-2.133-1.222-3.182-1.664c-1.048-0.443-2.282-0.666-3.698-0.666c-1.261,0-2.439,0.252-3.531,0.751
		c-1.095,0.5-1.977,1.214-2.645,2.144c-0.666,0.926-0.999,2.009-0.999,3.25c0,1.095,0.291,2.098,0.874,3.008
		c0.585,0.913,1.394,1.638,2.432,2.175c1.038,0.536,2.208,0.807,3.511,0.807c1.052,0,2.048-0.131,2.983-0.383
		c0.938-0.257,1.729-0.541,2.37-0.854c0.64-0.313,1.301-0.683,1.977-1.111V33.818z"/>
	<path fill="#FFFFFF" d="M240.687,35.443h-7.02l-1.705-3.847c-0.622-1.406-1.188-2.435-1.686-3.088
		c-0.502-0.65-0.987-1.068-1.461-1.25c-0.477-0.182-1.089-0.272-1.841-0.272h-0.735v8.457h-6.53V13.774h11.113
		c1.793,0,3.262,0.366,4.409,1.096c1.147,0.729,1.972,1.615,2.478,2.658c0.506,1.042,0.757,2.03,0.757,2.97
		c0,1.095-0.21,2.019-0.632,2.774c-0.423,0.757-0.869,1.305-1.337,1.65c-0.47,0.344-0.994,0.671-1.579,0.986
		c0.698,0.404,1.273,0.887,1.728,1.443c0.453,0.559,1.07,1.687,1.853,3.385L240.687,35.443z M231.805,20.623
		c0-0.999-0.327-1.699-0.982-2.096c-0.658-0.396-1.725-0.591-3.206-0.591h-1.377v5.22h1.409c1.596,0,2.687-0.175,3.275-0.525
		C231.512,22.283,231.805,21.614,231.805,20.623"/>
	<path fill="#FFFFFF" d="M257.684,29.142c0,1.355-0.345,2.527-1.037,3.519c-0.693,0.991-1.66,1.749-2.899,2.273
		c-1.243,0.527-2.664,0.791-4.271,0.791c-0.447,0-0.998-0.027-1.648-0.085c-0.652-0.059-1.515-0.218-2.595-0.478
		c-1.079-0.261-2.202-0.646-3.369-1.159v-5.313c1.094,0.678,2.17,1.241,3.228,1.689c1.06,0.446,2.193,0.672,3.401,0.672
		c1.116,0,1.837-0.185,2.164-0.555c0.33-0.37,0.495-0.718,0.495-1.04c0-0.585-0.284-1.076-0.847-1.479
		c-0.563-0.401-1.38-0.814-2.454-1.242c-1.188-0.5-2.231-1.045-3.127-1.635c-0.897-0.588-1.628-1.325-2.197-2.211
		c-0.564-0.886-0.851-1.934-0.851-3.143c0-1.166,0.287-2.223,0.858-3.166c0.575-0.943,1.448-1.698,2.626-2.26
		c1.181-0.561,2.616-0.843,4.315-0.843c1.209,0,2.326,0.117,3.354,0.351c1.027,0.236,1.876,0.499,2.543,0.79
		c0.667,0.291,1.124,0.521,1.373,0.688v5.082c-0.885-0.637-1.872-1.204-2.962-1.703c-1.09-0.502-2.254-0.754-3.494-0.754
		c-0.813,0-1.4,0.158-1.766,0.471c-0.365,0.312-0.547,0.697-0.547,1.157c0,0.426,0.182,0.796,0.547,1.109
		c0.365,0.314,1.017,0.694,1.956,1.143c1.664,0.782,3,1.484,4.002,2.11c0.996,0.624,1.783,1.347,2.352,2.165
		C257.4,26.904,257.684,27.922,257.684,29.142"/>
	<polygon fill="#FFFFFF" points="277.341,35.442 261.005,35.442 261.005,13.775 277.075,13.775 277.075,18.121 267.539,18.121 
		267.539,22.092 276.637,22.092 276.637,26.455 267.539,26.455 267.539,31.083 277.341,31.083 	"/>
	<path fill="#FFFFFF" d="M300,33.818c-0.898,0.467-1.814,0.844-2.753,1.123c-0.937,0.282-1.883,0.483-2.836,0.604
		c-0.955,0.12-1.942,0.178-2.965,0.178c-1.886,0-3.576-0.26-5.072-0.781c-1.495-0.521-2.792-1.287-3.894-2.304
		c-1.099-1.018-1.922-2.204-2.469-3.565c-0.548-1.359-0.82-2.853-0.82-4.477c0-1.868,0.324-3.5,0.967-4.902
		c0.646-1.402,1.553-2.568,2.715-3.496c1.16-0.926,2.485-1.611,3.972-2.055c1.485-0.441,3.05-0.665,4.698-0.665
		c2.458,0,5.245,0.549,8.364,1.641v5.753c-1.074-0.666-2.138-1.222-3.185-1.664c-1.046-0.443-2.281-0.666-3.698-0.666
		c-1.258,0-2.437,0.252-3.531,0.751c-1.096,0.5-1.973,1.214-2.642,2.144c-0.667,0.926-1.003,2.009-1.003,3.25
		c0,1.095,0.294,2.098,0.879,3.008c0.583,0.913,1.395,1.638,2.431,2.175c1.034,0.536,2.207,0.807,3.509,0.807
		c1.052,0,2.05-0.131,2.985-0.383c0.939-0.257,1.729-0.541,2.367-0.854c0.643-0.313,1.304-0.683,1.98-1.111V33.818z"/>
	<path opacity="0.8" fill="#FFFFFF" d="M215.98,20.334c-0.521-1.35-1.287-2.533-2.299-3.548c-1.011-1.018-2.3-1.822-3.869-2.417
		c-1.567-0.594-3.354-0.891-5.355-0.891c-2.677,0-4.946,0.519-6.804,1.555c-1.865,1.038-3.239,2.403-4.137,4.096
		c-0.898,1.694-1.346,3.515-1.346,5.462c0,1.939,0.452,3.759,1.353,5.459c0.9,1.697,2.281,3.069,4.136,4.112
		c1.199,0.672,2.577,1.127,4.121,1.364v-8.403c0,0-0.313-5.083,5.085-6.709c0,0,1.309,6.343-4.245,8.545v6.674
		c0.591,0.06,1.202,0.091,1.837,0.091c2.648,0,4.896-0.5,6.739-1.502c1.847-0.999,3.232-2.349,4.166-4.048s1.397-3.559,1.397-5.583
		C216.76,23.103,216.503,21.682,215.98,20.334"/>
</g>
<g>
	<defs>
		<path id="SVGID_1_" d="M0,25c0,10.325,8.528,19.148,19.149,19.148c10.576,0,19.149-8.573,19.149-19.148S29.725,5.852,19.149,5.852
			C8.573,5.852,0,14.425,0,25"/>
	</defs>
	<clipPath id="SVGID_2_">
		<use xlink:href="#SVGID_1_"  overflow="visible"/>
	</clipPath>
	<g opacity="0.5" clip-path="url(#SVGID_2_)">
		<path fill="#FFFFFF" d="M15.127,33.365c1.23,1.643,1.739,3.212,1.852,3.6c0.888-1.189,1.872-2.069,2.881-2.714
			C18.566,33.694,16.959,33.278,15.127,33.365"/>
		<path fill="#FFFFFF" d="M7.724,40.054c-0.795-0.443-1.509-0.976-2.15-1.561c-0.005,0.007-0.011,0.012-0.016,0.019
			c0,0,3.729,3.924,8.576,4.975c0.226-0.962,0.492-1.84,0.79-2.643C11.56,42.154,7.724,40.054,7.724,40.054"/>
		<path fill="#FFFFFF" d="M30.755,36.479c-0.491,3.624-4.297,5.939-4.297,5.939c-0.754,0.473-1.56,0.827-2.385,1.09
			c0.001,0.005,0.003,0.011,0.005,0.016c0,0,5.256-1.225,8.625-4.978C31.959,37.847,31.315,37.158,30.755,36.479"/>
		<path fill="#FFFFFF" d="M24.411,32.657c2.255-0.263,3.982,0.193,4.088,0.222c-0.603-1.376-0.88-2.68-0.939-3.887
			C26.427,29.835,25.255,31.021,24.411,32.657"/>
		<path fill="#FFFFFF" d="M37.612,19.834c0.025,0.095,0.037,0.146,0.037,0.146c-0.962,0.289-1.87,0.502-2.727,0.646
			c2.908,2.234,3.009,6.702,3.009,6.702c0.013,0.894-0.088,1.762-0.268,2.594c0.003,0.001,0.006,0.002,0.01,0.003
			C37.674,29.926,39.243,24.696,37.612,19.834"/>
		<path fill="#FFFFFF" d="M28.449,24.235c0.897-2.083,2.153-3.354,2.241-3.441c-1.501-0.161-2.776-0.569-3.856-1.119
			C27,21.08,27.447,22.688,28.449,24.235"/>
		<path fill="#FFFFFF" d="M13.84,17.3c-1.996,0.245-3.592-0.074-4.046-0.182c0.597,1.363,0.875,2.655,0.938,3.854
			C11.858,20.121,13.011,18.933,13.84,17.3"/>
		<path fill="#FFFFFF" d="M5.59,11.454c0.694,0.652,1.303,1.298,1.836,1.934C7.973,9.82,11.71,7.549,11.71,7.549
			c0.639-0.381,1.3-0.686,1.971-0.929C12.3,7.026,8.114,8.471,5.319,11.726C5.489,11.55,5.59,11.454,5.59,11.454"/>
		<path fill="#FFFFFF" d="M7.693,29.117c1.472,0.172,2.721,0.583,3.784,1.13c-0.168-1.397-0.615-2.993-1.608-4.532
			C9.084,27.561,8.012,28.779,7.693,29.117"/>
		<path fill="#FFFFFF" d="M0.364,22.673c-0.013-0.916,0.093-1.805,0.281-2.655c-0.002-0.001-0.004-0.002-0.006-0.002
			c0,0-1.528,5.092-0.001,9.898c0.923-0.278,1.797-0.483,2.623-0.627C0.462,27.025,0.364,22.673,0.364,22.673"/>
		<path fill="#FFFFFF" d="M23.149,16.542c-1.297-1.728-1.795-3.378-1.874-3.658c-0.891,1.224-1.882,2.126-2.9,2.789
			C19.681,16.23,21.302,16.642,23.149,16.542"/>
		<path fill="#FFFFFF" d="M23.257,9.092c3.384-1.385,7.289,0.753,7.289,0.753c0.65,0.363,1.245,0.784,1.791,1.244
			c-1.01-0.968-4.384-3.924-8.65-4.718c0.228,0.057,0.353,0.094,0.353,0.094C23.814,7.42,23.551,8.293,23.257,9.092"/>
	</g>
	<path opacity="0.8" clip-path="url(#SVGID_2_)" fill="#F6F6F6" d="M7.549,36.627c-3.56-0.554-5.827-4.282-5.827-4.282
		c-0.468-0.784-0.821-1.604-1.084-2.431c-0.006,0.001-0.011,0.003-0.017,0.005c0,0,1.224,5.176,4.953,8.575
		C6.241,37.786,6.9,37.166,7.549,36.627"/>
	<path opacity="0.8" clip-path="url(#SVGID_2_)" fill="#F6F6F6" d="M16.776,43.737c-0.906,0.029-1.792-0.067-2.643-0.251
		c-0.001,0.005-0.003,0.01-0.004,0.015c0,0,5.279,1.489,9.944,0.007c-0.289-0.959-0.499-1.864-0.643-2.718
		C21.181,43.637,16.776,43.737,16.776,43.737"/>
	<path opacity="0.8" clip-path="url(#SVGID_2_)" fill="#F6F6F6" d="M34.213,36.422c-0.427,0.784-0.942,1.489-1.511,2.123
		c0,0.002,0.002,0.003,0.002,0.003c0,0,3.895-3.672,4.959-8.625c-0.986-0.232-1.886-0.506-2.706-0.813
		C36.36,32.499,34.213,36.422,34.213,36.422"/>
	<path opacity="0.8" clip-path="url(#SVGID_2_)" fill="#F6F6F6" d="M32.649,11.399c-0.678,0.721-1.348,1.351-2.008,1.898
		c3.63,0.486,5.949,4.299,5.949,4.299c0.432,0.723,0.765,1.476,1.021,2.237c-0.238-0.891-1.649-5.686-5.276-8.745
		C32.539,11.283,32.649,11.399,32.649,11.399"/>
	<path opacity="0.8" clip-path="url(#SVGID_2_)" fill="#F6F6F6" d="M4.006,13.598c0.38-0.682,0.825-1.304,1.313-1.872
		c-0.896,0.927-3.764,4.156-4.674,8.292c0.93,0.219,1.782,0.475,2.563,0.76C1.914,17.419,4.006,13.598,4.006,13.598"/>
	<path opacity="0.8" clip-path="url(#SVGID_2_)" fill="#F6F6F6" d="M14.771,9.127c2.249-2.853,6.659-2.953,6.659-2.953
		c0.773-0.011,1.527,0.061,2.255,0.197c-1.277-0.321-5.816-1.263-10.005,0.25c0.293-0.087,0.461-0.126,0.461-0.126
		C14.421,7.421,14.627,8.298,14.771,9.127"/>
	<path clip-path="url(#SVGID_2_)" fill="#FFFFFF" d="M37.931,27.329c0,0-0.101-4.468-3.009-6.702
		c0.857-0.145,1.765-0.357,2.727-0.646c0,0-0.012-0.052-0.037-0.146c-0.256-0.762-0.59-1.515-1.021-2.237
		c0,0-2.318-3.813-5.949-4.299c0.66-0.548,1.33-1.178,2.008-1.898c0,0-0.11-0.116-0.313-0.311c-0.546-0.46-1.141-0.881-1.79-1.244
		c0,0-3.905-2.138-7.29-0.753c0.294-0.799,0.558-1.672,0.782-2.627c0,0-0.125-0.037-0.353-0.094
		c-0.728-0.136-1.482-0.209-2.255-0.197c0,0-4.411,0.1-6.659,2.953c-0.144-0.829-0.351-1.706-0.629-2.632
		c0,0-0.168,0.039-0.461,0.125c-0.671,0.243-1.333,0.548-1.971,0.929c0,0-3.737,2.271-4.283,5.84
		c-0.534-0.637-1.143-1.282-1.837-1.935c0,0-0.101,0.096-0.271,0.271c-0.488,0.567-0.933,1.19-1.313,1.872
		c0,0-2.092,3.821-0.798,7.18c-0.781-0.285-1.634-0.541-2.563-0.76c-0.188,0.851-0.294,1.739-0.281,2.655
		c0,0,0.099,4.353,2.897,6.614c-0.826,0.144-1.7,0.349-2.623,0.627c0.263,0.827,0.616,1.646,1.084,2.431
		c0,0,2.266,3.729,5.827,4.282c-0.649,0.539-1.309,1.159-1.976,1.867c0.641,0.584,1.355,1.116,2.15,1.56c0,0,3.836,2.101,7.199,0.79
		c-0.297,0.803-0.563,1.681-0.79,2.643c0.851,0.185,1.737,0.281,2.643,0.251c0,0,4.404-0.101,6.654-2.947
		c0.144,0.854,0.354,1.759,0.643,2.718c0.825-0.263,1.631-0.618,2.385-1.09c0,0,3.807-2.315,4.297-5.94
		c0.56,0.681,1.205,1.369,1.947,2.067c0.569-0.634,1.084-1.339,1.511-2.123c0,0,2.147-3.923,0.745-7.313
		c0.82,0.308,1.719,0.581,2.706,0.813C37.843,29.091,37.944,28.223,37.931,27.329 M31.217,27.14c0,0-1.775,0.454-3.657,1.853
		c0.06,1.207,0.338,2.511,0.939,3.888c-0.106-0.029-1.833-0.484-4.088-0.222c-0.551,1.066-0.963,2.323-1.135,3.803
		c-0.233-0.227-1.471-1.375-3.415-2.211c-1.009,0.646-1.993,1.524-2.881,2.715c-0.113-0.389-0.622-1.957-1.852-3.6
		c-1.193,0.058-2.482,0.327-3.841,0.914c0.102-0.425,0.432-2.023,0.19-4.032c-1.063-0.547-2.312-0.958-3.783-1.13
		c0.319-0.338,1.391-1.557,2.175-3.402c-0.649-1.007-1.534-1.989-2.728-2.874c0.458-0.139,1.995-0.662,3.592-1.869
		c-0.063-1.198-0.342-2.49-0.938-3.854c0.453,0.107,2.05,0.428,4.045,0.182c0.546-1.075,0.951-2.339,1.113-3.828
		c0.285,0.273,1.519,1.39,3.421,2.201c1.018-0.663,2.01-1.565,2.9-2.789c0.079,0.28,0.577,1.931,1.873,3.658
		c1.211-0.066,2.519-0.353,3.898-0.966c-0.059,0.224-0.473,1.917-0.214,4.099c1.081,0.55,2.356,0.959,3.856,1.119
		c-0.087,0.087-1.344,1.358-2.241,3.442c0.661,1.021,1.564,2.019,2.789,2.912C31.23,27.146,31.224,27.143,31.217,27.14"/>
	<path opacity="0.8" clip-path="url(#SVGID_2_)" fill="#F6F6F6" d="M11.477,30.247c0.242,2.009-0.088,3.608-0.19,4.032
		c1.359-0.587,2.648-0.856,3.841-0.914C14.285,32.24,13.102,31.084,11.477,30.247"/>
	<path opacity="0.8" clip-path="url(#SVGID_2_)" fill="#F6F6F6" d="M23.276,36.461c0.172-1.479,0.584-2.736,1.135-3.804
		c-1.399,0.163-3.003,0.603-4.55,1.594C21.805,35.085,23.043,36.234,23.276,36.461"/>
	<path opacity="0.8" clip-path="url(#SVGID_2_)" fill="#F6F6F6" d="M27.56,28.992c1.881-1.398,3.657-1.854,3.657-1.854
		c0.006,0.005,0.014,0.007,0.021,0.01c-1.225-0.895-2.128-1.891-2.789-2.913C27.889,25.535,27.469,27.15,27.56,28.992"/>
	<path opacity="0.8" clip-path="url(#SVGID_2_)" fill="#F6F6F6" d="M26.833,19.675c-0.26-2.182,0.155-3.875,0.214-4.099
		c-1.379,0.613-2.688,0.899-3.898,0.965C23.998,17.674,25.191,18.839,26.833,19.675"/>
	<path opacity="0.8" clip-path="url(#SVGID_2_)" fill="#F6F6F6" d="M10.733,20.972c-1.598,1.207-3.135,1.73-3.592,1.869
		c1.194,0.885,2.079,1.867,2.728,2.874C10.421,24.415,10.83,22.805,10.733,20.972"/>
	<path opacity="0.8" clip-path="url(#SVGID_2_)" fill="#F6F6F6" d="M14.954,13.472c-0.162,1.489-0.567,2.753-1.113,3.828
		c1.4-0.173,2.998-0.626,4.535-1.627C16.472,14.861,15.239,13.745,14.954,13.472"/>
</g>
</svg>
