<?xml version="1.0" encoding="utf-8"?>
<!-- Generator: Adobe Illustrator 15.0.0, SVG Export Plug-In . SVG Version: 6.00 Build 0)  -->
<!DOCTYPE svg PUBLIC "-//W3C//DTD SVG 1.1//EN" "http://www.w3.org/Graphics/SVG/1.1/DTD/svg11.dtd">
<svg version="1.1" id="Capa_2" xmlns="http://www.w3.org/2000/svg" xmlns:xlink="http://www.w3.org/1999/xlink" x="0px" y="0px"
	 width="300px" height="153px" viewBox="0 0 300 153" enable-background="new 0 0 300 153" xml:space="preserve">
<g>
	<g>
		<path fill="#07375F" stroke="#07375F" stroke-miterlimit="10" d="M150.669,100.973l-1.146,2.578
			c-2.484,1.6-4.697,2.639-6.643,3.115c-1.945,0.477-3.682,0.717-5.21,0.717c-2.864,0-5.58-0.561-8.145-1.682
			c-2.567-1.123-4.656-3.021-6.269-5.693c-1.61-2.676-2.416-5.898-2.416-9.668c0-2.51,0.309-4.77,0.932-6.787
			c0.62-2.018,1.271-3.516,1.951-4.494c0.68-0.979,1.831-2.064,3.455-3.259c1.624-1.193,3.342-2.149,5.157-2.865
			c1.814-0.716,3.773-1.075,5.873-1.075c2.864,0,5.391,0.675,7.573,2.024c2.186,1.348,3.718,3.074,4.601,5.174
			c0.883,2.1,1.325,4.332,1.325,6.695c0,0.74-0.033,1.457-0.106,2.148l-0.394,0.396c-1.624,0.357-3.807,0.596-6.552,0.715
			c-2.747,0.117-4.561,0.18-5.444,0.18h-11.494c0.047,4.941,1.289,8.58,3.723,10.92c2.435,2.338,5.419,3.512,8.952,3.512
			c1.672,0,3.277-0.287,4.816-0.861c1.54-0.572,3.169-1.373,4.888-2.398L150.669,100.973z M127.717,86.328
			c0.429,0.07,2.083,0.156,4.959,0.25c2.876,0.096,5.006,0.143,6.392,0.143c3.318,0,5.335-0.059,6.051-0.178
			c0.022-0.574,0.037-1.016,0.037-1.326c0-3.7-0.752-6.45-2.256-8.253c-1.504-1.802-3.558-2.704-6.16-2.704
			c-2.841,0-5.057,1.015-6.642,3.045C128.509,79.333,127.717,82.342,127.717,86.328z"/>
		<path fill="#07375F" stroke="#07375F" stroke-miterlimit="10" d="M167.535,53.205l0.683,0.43
			c-0.266,2.747-0.396,8.248-0.396,16.507v22.454c0,0.525,0.047,2.213,0.144,5.066c0.094,2.852,0.196,4.518,0.305,4.994
			c0.106,0.479,0.268,0.822,0.483,1.037c0.215,0.217,0.477,0.355,0.787,0.414c0.309,0.061,1.599,0.16,3.866,0.303l0.324,0.287v1.504
			l-0.289,0.322c-2.983-0.191-5.86-0.285-8.629-0.285c-2.746,0-5.609,0.094-8.593,0.285l-0.322-0.322v-1.504l0.322-0.287
			c2.314-0.143,3.622-0.248,3.922-0.322c0.297-0.07,0.559-0.221,0.788-0.447c0.227-0.227,0.38-0.572,0.464-1.037
			c0.083-0.467,0.18-2.006,0.287-4.619c0.106-2.615,0.16-4.59,0.16-5.926v-18.55l-0.142-7.591c-0.073-2.65-0.15-4.489-0.232-5.515
			c-0.085-1.025-0.198-1.635-0.342-1.826c-0.142-0.192-0.394-0.334-0.752-0.431c-0.357-0.096-1.804-0.143-4.332-0.143l-0.323-0.323
			v-1.504l0.287-0.322C160.565,55.33,164.408,54.446,167.535,53.205z"/>
		<path fill="#07375F" stroke="#07375F" stroke-miterlimit="10" d="M189.127,74.547h8.882c3.03,0,5.473-0.174,7.321-0.519
			c1.85-0.346,4.028-0.985,6.536-1.916l0.643,0.465c-0.238,3.128-0.357,7.103-0.357,11.925v8.094c0,0.525,0.049,2.213,0.146,5.066
			c0.094,2.852,0.196,4.518,0.303,4.994c0.108,0.479,0.27,0.822,0.483,1.037c0.215,0.217,0.479,0.355,0.787,0.414
			c0.311,0.061,1.599,0.16,3.868,0.303l0.322,0.287v1.504l-0.322,0.322c-2.96-0.191-5.825-0.285-8.595-0.285
			c-2.576,0-5.441,0.094-8.594,0.285l-0.321-0.322v-1.504l0.321-0.287c2.291-0.143,3.593-0.248,3.903-0.322
			c0.311-0.07,0.578-0.221,0.807-0.447c0.227-0.227,0.38-0.572,0.466-1.037c0.081-0.467,0.171-2.006,0.268-4.619
			c0.097-2.615,0.144-4.59,0.144-5.926v-7.057c0-0.979-0.047-2.422-0.144-4.332s-0.214-2.949-0.357-3.115
			c-0.144-0.167-0.341-0.316-0.593-0.448c-0.249-0.13-1.271-0.196-3.06-0.196l-3.474,0.036l-0.216,1.038l-0.358,0.18h-8.809v14.432
			c0,0.762,0.056,2.512,0.161,5.244c0.106,2.734,0.211,4.34,0.305,4.816c0.095,0.479,0.256,0.822,0.484,1.037
			c0.226,0.217,0.596,0.371,1.109,0.469c0.513,0.094,1.856,0.178,4.027,0.248l0.287,0.287v1.504l-0.287,0.322
			c-0.788-0.023-1.886-0.07-3.292-0.145c-1.864-0.094-3.784-0.141-5.767-0.141c-2.58,0-5.455,0.094-8.63,0.285l-0.287-0.322v-1.504
			l0.287-0.287c2.315-0.143,3.627-0.248,3.939-0.322c0.309-0.07,0.572-0.221,0.787-0.447c0.214-0.227,0.363-0.572,0.448-1.037
			c0.082-0.467,0.179-2.006,0.285-4.619c0.11-2.615,0.163-4.59,0.163-5.926V78.234l-4.62,0.252l-0.322-0.287v-0.895l0.25-0.358
			l4.692-2.399v-2.148c0-2.387,0.106-4.195,0.32-5.425c0.217-1.229,0.616-2.364,1.2-3.402s1.606-2.351,3.062-3.938
			c1.456-1.588,2.734-2.889,3.833-3.903c1.096-1.015,2.052-1.695,2.862-2.041c0.813-0.346,1.768-0.52,2.865-0.52
			c0.908,0,1.886,0.179,2.938,0.537l-0.037,5.873l-0.824,0.322c-1.335-1.193-2.887-1.791-4.652-1.791
			c-1.241,0-2.317,0.258-3.224,0.77c-0.909,0.513-1.528,1.349-1.862,2.506c-0.335,1.159-0.502,3.074-0.502,5.748V74.547z
			 M208.821,56.105c1.1,0,2.042,0.388,2.83,1.164c0.787,0.775,1.182,1.736,1.182,2.881c0,1.098-0.389,2.042-1.166,2.83
			c-0.772,0.787-1.723,1.181-2.846,1.181s-2.075-0.387-2.863-1.164c-0.789-0.775-1.182-1.724-1.182-2.847
			c0-1.121,0.398-2.077,1.199-2.865C206.774,56.5,207.724,56.105,208.821,56.105z"/>
		<path fill="#07375F" stroke="#07375F" stroke-miterlimit="10" d="M250.934,102.404l-1.434,2.402
			c-3.08,1.693-6.518,2.541-10.313,2.541c-5.251,0-9.31-1.564-12.174-4.691c-2.865-3.127-4.297-7.162-4.297-12.105
			c0-2.24,0.244-4.24,0.735-5.996c0.486-1.754,1.109-3.204,1.86-4.35c0.754-1.146,1.582-2.053,2.488-2.723
			c0.908-0.668,2.44-1.599,4.604-2.792c2.157-1.194,3.787-1.977,4.885-2.346c1.1-0.37,2.615-0.555,4.547-0.555
			c3.701,0,6.734,0.704,9.098,2.112c-0.454,2.698-0.802,5.706-1.04,9.024l-0.32,0.287h-1.468l-0.324-0.324
			c-0.095-2.004-0.227-3.353-0.394-4.045c-0.167-0.691-1.115-1.432-2.846-2.221c-1.732-0.787-3.575-1.181-5.534-1.181
			c-1.957,0-3.699,0.411-5.228,1.236c-1.528,0.823-2.679,2.172-3.455,4.045c-0.775,1.875-1.164,4.113-1.164,6.715
			c0,2.197,0.311,4.34,0.932,6.428c0.62,2.09,1.438,3.82,2.453,5.191c1.015,1.375,2.355,2.477,4.027,3.313s3.534,1.256,5.587,1.256
			c1.288,0,2.547-0.17,3.776-0.504c1.231-0.332,2.646-0.881,4.246-1.646L250.934,102.404z"/>
		<path fill="#07375F" stroke="#07375F" stroke-miterlimit="10" d="M254.836,89.836c0-2.84,0.584-5.578,1.754-8.217
			c1.17-2.637,3.206-4.918,6.104-6.839c2.903-1.921,6.345-2.883,10.333-2.883c5.014,0,9.096,1.582,12.247,4.745
			c3.15,3.163,4.726,7.228,4.726,12.192c0,5.467-1.81,9.969-5.426,13.5c-3.617,3.535-7.979,5.301-13.087,5.301
			c-3.341,0-6.326-0.902-8.952-2.705c-2.625-1.801-4.566-4.004-5.819-6.605S254.836,92.895,254.836,89.836z M261.605,87.365
			c0,3.344,0.429,6.334,1.288,8.973c0.859,2.635,2.22,4.756,4.08,6.354c1.865,1.6,3.989,2.4,6.377,2.4
			c2.815,0,5.143-1.115,6.981-3.35c1.839-2.23,2.757-5.59,2.757-10.08c0-5.084-0.997-9.25-2.989-12.496
			c-1.994-3.247-4.865-4.87-8.612-4.87c-3.104,0-5.528,1.122-7.269,3.365C262.475,79.906,261.605,83.141,261.605,87.365z"/>
	</g>
	<g>
		<path fill="#7CAC39" d="M40.188,51.816c-10.406,0-18.814-8.406-18.814-18.812c0-10.407,8.408-18.815,18.814-18.815
			C50.591,14.188,59,22.597,59,33.004C59,43.41,50.591,51.816,40.188,51.816 M54.645,8.019H25.367L10.726,33.367l14.641,25.348
			h29.278l14.64-25.348L54.645,8.019z"/>
		<path fill="#7CAC39" d="M89.732,79.645c-10.405,0-18.814-8.409-18.814-18.814c0-10.404,8.409-18.813,18.814-18.813
			s18.813,8.409,18.813,18.813C108.544,71.236,100.137,79.645,89.732,79.645 M104.189,35.847H74.91L60.271,61.194L74.91,86.539
			h29.279l14.639-25.345L104.189,35.847z"/>
		<path fill="#7CAC39" d="M39.461,108.621c-10.404,0-18.814-8.408-18.814-18.814c0-10.404,8.411-18.814,18.814-18.814
			c10.406,0,18.814,8.41,18.814,18.814C58.275,100.213,49.867,108.621,39.461,108.621 M53.919,64.822H24.64L10,90.17l14.64,25.348
			h29.279L68.558,90.17L53.919,64.822z"/>
		<path fill="#7CAC39" d="M89.188,136.086c-10.406,0-18.815-8.412-18.815-18.816s8.41-18.813,18.815-18.813
			c10.405,0,18.811,8.408,18.811,18.813S99.593,136.086,89.188,136.086 M103.645,92.289H74.366l-14.639,25.346l14.639,25.346h29.278
			l14.64-25.346L103.645,92.289z"/>
	</g>
</g>
</svg>
