<?xml version="1.0" encoding="utf-8"?>
<!-- Generator: Adobe Illustrator 15.0.0, SVG Export Plug-In . SVG Version: 6.00 Build 0)  -->
<!DOCTYPE svg PUBLIC "-//W3C//DTD SVG 1.1//EN" "http://www.w3.org/Graphics/SVG/1.1/DTD/svg11.dtd">
<svg version="1.1" xmlns="http://www.w3.org/2000/svg" xmlns:xlink="http://www.w3.org/1999/xlink" x="0px" y="0px" width="300px"
	 height="153px" viewBox="0 0 300 153" enable-background="new 0 0 300 153" xml:space="preserve">
<g id="Capa_3">
	<g>
		<g>
			<path fill="#FFFFFF" stroke="#FFFFFF" stroke-width="5" stroke-miterlimit="10" d="M150.669,101.973l-1.146,2.578
				c-2.484,1.6-4.697,2.639-6.643,3.115c-1.945,0.477-3.682,0.717-5.21,0.717c-2.864,0-5.58-0.561-8.145-1.682
				c-2.567-1.123-4.656-3.021-6.269-5.693c-1.61-2.676-2.416-5.898-2.416-9.668c0-2.51,0.309-4.77,0.932-6.787
				c0.62-2.018,1.271-3.516,1.951-4.494c0.68-0.979,1.831-2.063,3.455-3.259c1.624-1.192,3.342-2.148,5.157-2.864
				c1.814-0.717,3.773-1.075,5.873-1.075c2.864,0,5.391,0.675,7.573,2.023c2.186,1.349,3.718,3.074,4.601,5.175
				c0.884,2.1,1.325,4.332,1.325,6.694c0,0.74-0.033,1.457-0.105,2.147l-0.395,0.396c-1.624,0.357-3.807,0.596-6.552,0.715
				c-2.747,0.117-4.561,0.18-5.444,0.18h-11.494c0.047,4.941,1.289,8.58,3.723,10.92c2.435,2.339,5.419,3.513,8.952,3.513
				c1.672,0,3.277-0.287,4.816-0.86c1.54-0.572,3.169-1.373,4.888-2.398L150.669,101.973z M127.717,87.328
				c0.429,0.07,2.083,0.156,4.959,0.25c2.876,0.096,5.006,0.143,6.392,0.143c3.318,0,5.335-0.059,6.051-0.178
				c0.022-0.574,0.037-1.016,0.037-1.326c0-3.699-0.752-6.449-2.256-8.253c-1.504-1.802-3.558-2.704-6.16-2.704
				c-2.841,0-5.057,1.016-6.642,3.045C128.509,80.333,127.717,83.342,127.717,87.328z"/>
			<path fill="#FFFFFF" stroke="#FFFFFF" stroke-width="5" stroke-miterlimit="10" d="M167.535,54.205l0.683,0.43
				c-0.266,2.747-0.396,8.248-0.396,16.508v22.453c0,0.525,0.047,2.213,0.144,5.066c0.095,2.852,0.196,4.518,0.306,4.994
				c0.105,0.479,0.268,0.822,0.482,1.037c0.215,0.217,0.477,0.354,0.787,0.414c0.309,0.061,1.6,0.16,3.866,0.303l0.323,0.287v1.504
				l-0.289,0.322c-2.982-0.191-5.859-0.285-8.629-0.285c-2.746,0-5.608,0.094-8.592,0.285l-0.322-0.322v-1.504l0.322-0.287
				c2.313-0.143,3.621-0.248,3.922-0.322c0.297-0.07,0.559-0.221,0.787-0.447c0.228-0.227,0.381-0.572,0.465-1.037
				c0.082-0.467,0.18-2.006,0.287-4.619c0.105-2.614,0.159-4.59,0.159-5.926v-18.55l-0.142-7.591
				c-0.073-2.649-0.15-4.488-0.232-5.515c-0.085-1.025-0.197-1.635-0.342-1.826c-0.143-0.192-0.395-0.334-0.752-0.431
				s-1.805-0.144-4.332-0.144l-0.323-0.322v-1.505l0.287-0.321C160.564,56.33,164.408,55.446,167.535,54.205z"/>
			<path fill="#FFFFFF" stroke="#FFFFFF" stroke-width="5" stroke-miterlimit="10" d="M189.127,75.547h8.882
				c3.03,0,5.474-0.174,7.321-0.519c1.85-0.346,4.027-0.985,6.536-1.916l0.643,0.465c-0.237,3.128-0.356,7.103-0.356,11.925v8.094
				c0,0.525,0.049,2.213,0.146,5.066c0.095,2.852,0.196,4.518,0.304,4.994c0.107,0.479,0.27,0.822,0.482,1.037
				c0.215,0.217,0.479,0.354,0.787,0.414c0.311,0.061,1.6,0.16,3.868,0.303l0.321,0.287v1.504l-0.321,0.322
				c-2.96-0.191-5.825-0.285-8.595-0.285c-2.576,0-5.441,0.094-8.595,0.285l-0.321-0.322v-1.504l0.321-0.287
				c2.291-0.143,3.593-0.248,3.903-0.322c0.311-0.07,0.578-0.221,0.807-0.447c0.227-0.227,0.381-0.572,0.467-1.037
				c0.08-0.467,0.17-2.006,0.268-4.619c0.097-2.614,0.145-4.59,0.145-5.926v-7.057c0-0.979-0.048-2.422-0.145-4.332
				c-0.098-1.91-0.214-2.949-0.357-3.115s-0.341-0.315-0.593-0.447c-0.249-0.131-1.271-0.196-3.06-0.196l-3.475,0.036l-0.216,1.037
				l-0.358,0.181h-8.809v14.433c0,0.762,0.057,2.512,0.161,5.243c0.106,2.734,0.211,4.341,0.305,4.816
				c0.095,0.479,0.257,0.821,0.484,1.036c0.226,0.218,0.596,0.371,1.108,0.47c0.514,0.094,1.856,0.178,4.027,0.248l0.287,0.287
				v1.504l-0.287,0.321c-0.788-0.022-1.886-0.069-3.292-0.145c-1.864-0.094-3.784-0.141-5.767-0.141
				c-2.58,0-5.455,0.094-8.631,0.285l-0.287-0.322v-1.504l0.287-0.287c2.315-0.143,3.627-0.248,3.939-0.322
				c0.309-0.07,0.572-0.221,0.787-0.447c0.214-0.227,0.363-0.572,0.447-1.037c0.082-0.467,0.18-2.006,0.285-4.619
				c0.11-2.614,0.164-4.59,0.164-5.926V79.234l-4.621,0.252l-0.321-0.287v-0.895l0.25-0.359l4.692-2.398v-2.147
				c0-2.388,0.105-4.195,0.319-5.425c0.218-1.229,0.616-2.364,1.2-3.402s1.605-2.351,3.063-3.938
				c1.455-1.588,2.733-2.889,3.832-3.902c1.096-1.016,2.053-1.695,2.862-2.041c0.813-0.347,1.769-0.521,2.865-0.521
				c0.907,0,1.886,0.18,2.938,0.537l-0.037,5.873l-0.824,0.322c-1.336-1.193-2.887-1.791-4.652-1.791
				c-1.24,0-2.316,0.258-3.225,0.77c-0.908,0.514-1.527,1.35-1.861,2.506c-0.335,1.159-0.502,3.074-0.502,5.748v7.412H189.127z
				 M208.82,57.105c1.101,0,2.043,0.388,2.83,1.164c0.787,0.774,1.183,1.735,1.183,2.881c0,1.098-0.39,2.042-1.166,2.83
				c-0.772,0.787-1.724,1.181-2.847,1.181c-1.122,0-2.074-0.387-2.862-1.164c-0.789-0.774-1.183-1.724-1.183-2.847
				c0-1.121,0.398-2.077,1.199-2.865C206.773,57.5,207.725,57.105,208.82,57.105z"/>
			<path fill="#FFFFFF" stroke="#FFFFFF" stroke-width="5" stroke-miterlimit="10" d="M250.934,103.404l-1.434,2.402
				c-3.08,1.692-6.518,2.541-10.313,2.541c-5.252,0-9.311-1.564-12.174-4.691c-2.865-3.127-4.298-7.162-4.298-12.105
				c0-2.24,0.244-4.24,0.735-5.996c0.486-1.754,1.109-3.203,1.859-4.35c0.754-1.146,1.582-2.053,2.488-2.723
				c0.908-0.668,2.44-1.6,4.604-2.792c2.158-1.194,3.787-1.978,4.886-2.347c1.101-0.369,2.614-0.555,4.547-0.555
				c3.701,0,6.733,0.704,9.099,2.112c-0.455,2.698-0.803,5.706-1.041,9.023l-0.319,0.287h-1.468l-0.324-0.323
				c-0.096-2.005-0.227-3.354-0.395-4.046c-0.166-0.69-1.115-1.432-2.846-2.221c-1.732-0.787-3.575-1.181-5.534-1.181
				c-1.957,0-3.698,0.411-5.228,1.235c-1.528,0.823-2.68,2.173-3.455,4.046c-0.775,1.875-1.164,4.112-1.164,6.715
				c0,2.196,0.311,4.34,0.932,6.428c0.62,2.09,1.438,3.82,2.453,5.191c1.016,1.375,2.355,2.477,4.027,3.313s3.533,1.256,5.587,1.256
				c1.288,0,2.547-0.17,3.776-0.504c1.23-0.332,2.646-0.881,4.246-1.646L250.934,103.404z"/>
			<path fill="#FFFFFF" stroke="#FFFFFF" stroke-width="5" stroke-miterlimit="10" d="M254.836,90.836
				c0-2.84,0.584-5.578,1.754-8.217c1.17-2.637,3.206-4.918,6.104-6.839c2.904-1.921,6.346-2.883,10.334-2.883
				c5.014,0,9.096,1.582,12.246,4.745c3.15,3.162,4.727,7.228,4.727,12.191c0,5.467-1.811,9.969-5.426,13.5
				c-3.617,3.535-7.979,5.301-13.088,5.301c-3.34,0-6.325-0.902-8.951-2.705c-2.625-1.801-4.566-4.004-5.819-6.604
				S254.836,93.895,254.836,90.836z M261.605,88.365c0,3.344,0.429,6.334,1.287,8.973c0.859,2.635,2.221,4.756,4.08,6.354
				c1.865,1.601,3.989,2.4,6.377,2.4c2.815,0,5.144-1.115,6.981-3.35c1.839-2.23,2.757-5.59,2.757-10.08
				c0-5.084-0.997-9.25-2.988-12.496c-1.994-3.247-4.865-4.87-8.613-4.87c-3.104,0-5.527,1.122-7.269,3.365
				C262.475,80.906,261.605,84.141,261.605,88.365z"/>
		</g>
		<g>
			<path fill="#FFFFFF" stroke="#FFFFFF" stroke-width="5" stroke-miterlimit="10" d="M40.188,52.816
				c-10.406,0-18.814-8.406-18.814-18.813s8.408-18.814,18.814-18.814C50.591,15.188,59,23.598,59,34.004
				S50.591,52.816,40.188,52.816 M54.645,9.02H25.367L10.726,34.367l14.641,25.348h29.278l14.64-25.348L54.645,9.02z"/>
			<path fill="#FFFFFF" stroke="#FFFFFF" stroke-width="5" stroke-miterlimit="10" d="M89.732,80.645
				c-10.405,0-18.814-8.408-18.814-18.813c0-10.404,8.409-18.813,18.814-18.813c10.405,0,18.813,8.408,18.813,18.813
				C108.544,72.236,100.137,80.645,89.732,80.645 M104.189,36.848H74.91L60.271,62.194L74.91,87.539h29.279l14.639-25.345
				L104.189,36.848z"/>
			<path fill="#FFFFFF" stroke="#FFFFFF" stroke-width="5" stroke-miterlimit="10" d="M39.461,109.621
				c-10.404,0-18.814-8.408-18.814-18.814c0-10.404,8.411-18.813,18.814-18.813c10.406,0,18.814,8.409,18.814,18.813
				C58.275,101.213,49.867,109.621,39.461,109.621 M53.919,65.822H24.64L10,91.17l14.64,25.348h29.279L68.558,91.17L53.919,65.822z"
				/>
			<path fill="#FFFFFF" stroke="#FFFFFF" stroke-width="5" stroke-miterlimit="10" d="M89.188,137.086
				c-10.406,0-18.815-8.412-18.815-18.816c0-10.403,8.41-18.813,18.815-18.813s18.811,8.408,18.811,18.813
				C107.999,128.675,99.593,137.086,89.188,137.086 M103.645,93.289H74.366l-14.639,25.346l14.639,25.346h29.278l14.64-25.346
				L103.645,93.289z"/>
		</g>
	</g>
</g>
<g id="Capa_2">
	<g>
		<g>
			<path fill="#07375F" stroke="#07375F" stroke-miterlimit="10" d="M150.669,101.973l-1.146,2.578
				c-2.484,1.6-4.697,2.639-6.643,3.115c-1.945,0.477-3.682,0.717-5.21,0.717c-2.864,0-5.58-0.561-8.145-1.682
				c-2.567-1.123-4.656-3.021-6.269-5.693c-1.61-2.676-2.416-5.898-2.416-9.668c0-2.51,0.309-4.77,0.932-6.787
				c0.62-2.018,1.271-3.516,1.951-4.494c0.68-0.979,1.831-2.063,3.455-3.258c1.624-1.193,3.342-2.149,5.157-2.865
				c1.814-0.716,3.773-1.075,5.873-1.075c2.864,0,5.391,0.675,7.573,2.024c2.186,1.348,3.718,3.075,4.601,5.174
				c0.884,2.1,1.325,4.332,1.325,6.695c0,0.74-0.033,1.457-0.105,2.146l-0.395,0.396c-1.624,0.357-3.807,0.596-6.552,0.715
				c-2.747,0.117-4.561,0.18-5.444,0.18h-11.494c0.047,4.941,1.289,8.58,3.723,10.92c2.435,2.34,5.419,3.514,8.952,3.514
				c1.672,0,3.277-0.287,4.816-0.861c1.54-0.572,3.169-1.373,4.888-2.398L150.669,101.973z M127.717,87.328
				c0.429,0.07,2.083,0.156,4.959,0.25c2.876,0.096,5.006,0.143,6.392,0.143c3.318,0,5.335-0.059,6.051-0.178
				c0.022-0.574,0.037-1.016,0.037-1.326c0-3.699-0.752-6.449-2.256-8.252c-1.504-1.802-3.558-2.705-6.16-2.705
				c-2.841,0-5.057,1.015-6.642,3.044C128.509,80.334,127.717,83.342,127.717,87.328z"/>
			<path fill="#07375F" stroke="#07375F" stroke-miterlimit="10" d="M167.535,54.206l0.683,0.43
				c-0.266,2.747-0.396,8.248-0.396,16.507v22.453c0,0.525,0.047,2.213,0.144,5.066c0.095,2.852,0.196,4.518,0.306,4.994
				c0.105,0.479,0.268,0.822,0.482,1.037c0.215,0.217,0.477,0.355,0.787,0.414c0.309,0.061,1.6,0.16,3.866,0.303l0.323,0.287v1.504
				l-0.289,0.322c-2.982-0.191-5.859-0.285-8.629-0.285c-2.746,0-5.608,0.094-8.592,0.285l-0.322-0.322v-1.504l0.322-0.287
				c2.313-0.143,3.621-0.248,3.922-0.322c0.297-0.07,0.559-0.221,0.787-0.447c0.228-0.227,0.381-0.572,0.465-1.037
				c0.082-0.467,0.18-2.006,0.287-4.619c0.105-2.613,0.159-4.59,0.159-5.926V74.509l-0.142-7.591
				c-0.073-2.65-0.15-4.489-0.232-5.515c-0.085-1.025-0.197-1.635-0.342-1.826c-0.143-0.192-0.395-0.334-0.752-0.431
				c-0.357-0.096-1.805-0.143-4.332-0.143l-0.323-0.323v-1.504l0.287-0.322C160.564,56.331,164.408,55.446,167.535,54.206z"/>
			<path fill="#07375F" stroke="#07375F" stroke-miterlimit="10" d="M189.127,75.547h8.882c3.03,0,5.474-0.174,7.321-0.519
				c1.85-0.346,4.027-0.985,6.536-1.916l0.643,0.465c-0.237,3.128-0.356,7.102-0.356,11.924v8.094c0,0.525,0.049,2.213,0.146,5.066
				c0.095,2.852,0.196,4.518,0.304,4.994c0.107,0.479,0.27,0.822,0.482,1.037c0.215,0.217,0.479,0.355,0.787,0.414
				c0.311,0.061,1.6,0.16,3.868,0.303l0.321,0.287v1.504l-0.321,0.322c-2.96-0.191-5.825-0.285-8.595-0.285
				c-2.576,0-5.441,0.094-8.595,0.285l-0.321-0.322v-1.504l0.321-0.287c2.291-0.143,3.593-0.248,3.903-0.322
				c0.311-0.07,0.578-0.221,0.807-0.447c0.227-0.227,0.381-0.572,0.467-1.037c0.08-0.467,0.17-2.006,0.268-4.619
				c0.097-2.613,0.145-4.59,0.145-5.926v-7.057c0-0.979-0.048-2.422-0.145-4.332c-0.098-1.91-0.214-2.949-0.357-3.115
				s-0.341-0.314-0.593-0.447c-0.249-0.13-1.271-0.195-3.06-0.195l-3.475,0.035l-0.216,1.037l-0.358,0.182h-8.809v14.432
				c0,0.762,0.057,2.512,0.161,5.244c0.106,2.734,0.211,4.34,0.305,4.816c0.095,0.479,0.257,0.82,0.484,1.035
				c0.226,0.219,0.596,0.371,1.108,0.471c0.514,0.094,1.856,0.178,4.027,0.248l0.287,0.287v1.504l-0.287,0.32
				c-0.788-0.021-1.886-0.068-3.292-0.145c-1.864-0.094-3.784-0.141-5.767-0.141c-2.58,0-5.455,0.094-8.631,0.285l-0.287-0.322
				v-1.504l0.287-0.287c2.315-0.143,3.627-0.248,3.939-0.322c0.309-0.07,0.572-0.221,0.787-0.447
				c0.214-0.227,0.363-0.572,0.447-1.037c0.082-0.467,0.18-2.006,0.285-4.619c0.11-2.613,0.164-4.59,0.164-5.926V79.234
				l-4.621,0.252l-0.321-0.287v-0.895l0.25-0.358l4.692-2.399v-2.148c0-2.387,0.105-4.195,0.319-5.425
				c0.218-1.229,0.616-2.364,1.2-3.402c0.584-1.038,1.605-2.351,3.063-3.938c1.455-1.588,2.733-2.889,3.832-3.903
				c1.096-1.015,2.053-1.695,2.862-2.041c0.813-0.346,1.769-0.52,2.865-0.52c0.907,0,1.886,0.179,2.938,0.537l-0.037,5.873
				l-0.824,0.322c-1.336-1.193-2.887-1.791-4.652-1.791c-1.24,0-2.316,0.258-3.225,0.77c-0.908,0.513-1.527,1.349-1.861,2.506
				c-0.335,1.159-0.502,3.074-0.502,5.748v7.412H189.127z M208.82,57.105c1.101,0,2.043,0.388,2.83,1.164
				c0.787,0.775,1.183,1.736,1.183,2.881c0,1.098-0.39,2.042-1.166,2.83c-0.772,0.787-1.724,1.181-2.847,1.181
				c-1.122,0-2.074-0.387-2.862-1.164c-0.789-0.775-1.183-1.724-1.183-2.847c0-1.121,0.398-2.077,1.199-2.865
				C206.773,57.5,207.725,57.105,208.82,57.105z"/>
			<path fill="#07375F" stroke="#07375F" stroke-miterlimit="10" d="M250.934,103.404l-1.434,2.402
				c-3.08,1.693-6.518,2.541-10.313,2.541c-5.252,0-9.311-1.564-12.174-4.691c-2.865-3.127-4.298-7.162-4.298-12.105
				c0-2.24,0.244-4.24,0.735-5.996c0.486-1.754,1.109-3.203,1.859-4.35c0.754-1.146,1.582-2.053,2.488-2.723
				c0.908-0.668,2.44-1.599,4.604-2.792c2.158-1.194,3.787-1.977,4.886-2.346c1.101-0.37,2.614-0.555,4.547-0.555
				c3.701,0,6.733,0.704,9.099,2.112c-0.455,2.698-0.803,5.706-1.041,9.024l-0.319,0.287h-1.468l-0.324-0.324
				c-0.096-2.004-0.227-3.354-0.395-4.045c-0.166-0.691-1.115-1.432-2.846-2.221c-1.732-0.788-3.575-1.182-5.534-1.182
				c-1.957,0-3.698,0.411-5.228,1.236c-1.528,0.822-2.68,2.172-3.455,4.045c-0.775,1.875-1.164,4.113-1.164,6.715
				c0,2.197,0.311,4.34,0.932,6.428c0.62,2.09,1.438,3.82,2.453,5.191c1.016,1.375,2.355,2.477,4.027,3.313s3.533,1.256,5.587,1.256
				c1.288,0,2.547-0.17,3.776-0.504c1.23-0.332,2.646-0.881,4.246-1.646L250.934,103.404z"/>
			<path fill="#07375F" stroke="#07375F" stroke-miterlimit="10" d="M254.836,90.836c0-2.84,0.584-5.578,1.754-8.217
				c1.17-2.637,3.206-4.918,6.104-6.838c2.904-1.921,6.346-2.883,10.334-2.883c5.014,0,9.096,1.582,12.246,4.745
				c3.15,3.162,4.727,7.229,4.727,12.191c0,5.467-1.811,9.969-5.426,13.5c-3.617,3.535-7.979,5.301-13.088,5.301
				c-3.34,0-6.325-0.902-8.951-2.705c-2.625-1.801-4.566-4.004-5.819-6.604C255.463,96.725,254.836,93.895,254.836,90.836z
				 M261.605,88.365c0,3.344,0.429,6.334,1.287,8.973c0.859,2.635,2.221,4.756,4.08,6.354c1.865,1.602,3.989,2.4,6.377,2.4
				c2.815,0,5.144-1.115,6.981-3.35c1.839-2.23,2.757-5.59,2.757-10.08c0-5.084-0.997-9.25-2.988-12.496
				c-1.994-3.247-4.865-4.87-8.613-4.87c-3.104,0-5.527,1.122-7.269,3.366C262.475,80.906,261.605,84.141,261.605,88.365z"/>
		</g>
		<g>
			<path fill="#7CAC39" d="M40.188,52.816c-10.406,0-18.814-8.406-18.814-18.812c0-10.407,8.408-18.815,18.814-18.815
				C50.591,15.188,59,23.598,59,34.004C59,44.411,50.591,52.816,40.188,52.816 M54.645,9.02H25.367L10.726,34.368l14.641,25.348
				h29.278l14.64-25.348L54.645,9.02z"/>
			<path fill="#7CAC39" d="M89.732,80.645c-10.405,0-18.814-8.408-18.814-18.813c0-10.404,8.409-18.813,18.814-18.813
				c10.405,0,18.813,8.409,18.813,18.813C108.544,72.236,100.137,80.645,89.732,80.645 M104.189,36.848H74.91L60.271,62.194
				L74.91,87.539h29.279l14.639-25.345L104.189,36.848z"/>
			<path fill="#7CAC39" d="M39.461,109.621c-10.404,0-18.814-8.408-18.814-18.814c0-10.404,8.411-18.813,18.814-18.813
				c10.406,0,18.814,8.409,18.814,18.813C58.275,101.213,49.867,109.621,39.461,109.621 M53.919,65.823H24.64L10,91.17l14.64,25.348
				h29.279L68.558,91.17L53.919,65.823z"/>
			<path fill="#7CAC39" d="M89.188,137.086c-10.406,0-18.815-8.412-18.815-18.816c0-10.402,8.41-18.813,18.815-18.813
				s18.811,8.408,18.811,18.813C107.999,128.676,99.593,137.086,89.188,137.086 M103.645,93.289H74.366l-14.639,25.346
				l14.639,25.346h29.278l14.64-25.346L103.645,93.289z"/>
		</g>
	</g>
</g>
</svg>
